<svg width="13" height="9" viewBox="0 0 13 9" fill="none" xmlns="http://www.w3.org/2000/svg">
<path d="M0.501953 1.413L6.4997 4.4115L12.4975 1.413C12.4752 1.03083 12.3078 0.671616 12.0293 0.40892C11.7509 0.146224 11.3825 -7.01885e-05 10.9997 2.52625e-08H1.9997C1.61689 -7.01885e-05 1.24854 0.146224 0.970086 0.40892C0.691634 0.671616 0.524156 1.03083 0.501953 1.413Z" fill="#8D0101"/>
<path d="M12.5 3.08887L6.5 6.08887L0.5 3.08887V7.50037C0.5 7.89819 0.658035 8.27972 0.93934 8.56103C1.22064 8.84233 1.60218 9.00037 2 9.00037H11C11.3978 9.00037 11.7794 8.84233 12.0607 8.56103C12.342 8.27972 12.5 7.89819 12.5 7.50037V3.08887Z" fill="#8D0101"/>
</svg>
