<svg width="19" height="19" viewBox="0 0 19 19" fill="none" xmlns="http://www.w3.org/2000/svg">
<path fill-rule="evenodd" clip-rule="evenodd" d="M9.2551 0.272949C4.14365 0.272949 0 4.4166 0 9.52805C0 14.6395 4.14365 18.7832 9.2551 18.7832C14.3666 18.7832 18.5102 14.6395 18.5102 9.52805C18.5102 4.4166 14.3666 0.272949 9.2551 0.272949ZM7.22025 4.62113C7.74677 4.59717 7.91501 4.59131 9.25557 4.59131H9.25403C10.595 4.59131 10.7626 4.59717 11.2891 4.62113C11.8146 4.64519 12.1735 4.72839 12.4882 4.85045C12.8132 4.97643 13.0877 5.14508 13.3623 5.41965C13.6369 5.69401 13.8055 5.96941 13.932 6.29406C14.0534 6.60791 14.1367 6.9666 14.1613 7.49209C14.185 8.01861 14.1912 8.18685 14.1912 9.52741C14.1912 10.868 14.185 11.0358 14.1613 11.5623C14.1367 12.0876 14.0534 12.4464 13.932 12.7604C13.8055 13.0849 13.6369 13.3603 13.3623 13.6347C13.088 13.9092 12.8131 14.0783 12.4885 14.2044C12.1745 14.3264 11.8154 14.4096 11.2899 14.4337C10.7633 14.4577 10.5956 14.4635 9.25495 14.4635C7.91449 14.4635 7.74636 14.4577 7.21984 14.4337C6.69445 14.4096 6.33566 14.3264 6.0216 14.2044C5.69715 14.0783 5.42176 13.9092 5.1475 13.6347C4.87303 13.3603 4.70438 13.0849 4.5782 12.7603C4.45624 12.4464 4.37304 12.0877 4.34888 11.5622C4.32502 11.0357 4.31905 10.868 4.31905 9.52741C4.31905 8.18685 4.32522 8.01851 4.34877 7.49199C4.37243 6.96671 4.45572 6.60791 4.5781 6.29396C4.70458 5.96941 4.87323 5.69401 5.14781 5.41965C5.42217 5.14518 5.69756 4.97653 6.02222 4.85045C6.33607 4.72839 6.69476 4.64519 7.22025 4.62113Z" fill="#8D0101"/>
<path fill-rule="evenodd" clip-rule="evenodd" d="M8.81275 5.48121C8.89873 5.48108 8.99123 5.48112 9.09105 5.48117L9.25556 5.48121C10.5735 5.48121 10.7297 5.48594 11.2502 5.5096C11.7314 5.5316 11.9926 5.61202 12.1666 5.67958C12.397 5.76905 12.5612 5.876 12.7339 6.04876C12.9066 6.22153 13.0136 6.38606 13.1033 6.61642C13.1708 6.79021 13.2513 7.05141 13.2732 7.53268C13.2969 8.05303 13.302 8.20934 13.302 9.52666C13.302 10.844 13.2969 11.0003 13.2732 11.5206C13.2512 12.0019 13.1708 12.2631 13.1033 12.4369C13.0138 12.6673 12.9066 12.8313 12.7339 13.0039C12.5611 13.1767 12.3971 13.2837 12.1666 13.3731C11.9928 13.441 11.7314 13.5212 11.2502 13.5432C10.7298 13.5669 10.5735 13.572 9.25556 13.572C7.93752 13.572 7.78131 13.5669 7.26096 13.5432C6.77969 13.521 6.51849 13.4406 6.34439 13.373C6.11404 13.2836 5.9495 13.1766 5.77674 13.0038C5.60398 12.8311 5.49703 12.667 5.40735 12.4365C5.33979 12.2627 5.25927 12.0015 5.23737 11.5202C5.21371 10.9999 5.20898 10.8436 5.20898 9.52543C5.20898 8.20728 5.21371 8.05179 5.23737 7.53145C5.25937 7.05018 5.33979 6.78897 5.40735 6.61498C5.49682 6.38462 5.60398 6.22009 5.77674 6.04732C5.9495 5.87456 6.11404 5.76761 6.34439 5.67794C6.51839 5.61007 6.77969 5.52986 7.26096 5.50775C7.71632 5.48718 7.89279 5.48101 8.81275 5.47998V5.48121ZM11.8904 6.30057C11.5634 6.30057 11.2981 6.56558 11.2981 6.8927C11.2981 7.21972 11.5634 7.48503 11.8904 7.48503C12.2174 7.48503 12.4827 7.21972 12.4827 6.8927C12.4827 6.56568 12.2174 6.30037 11.8904 6.30037V6.30057ZM6.72066 9.52757C6.72066 8.12771 7.8556 6.99273 9.25546 6.99268C10.6554 6.99268 11.79 8.12767 11.79 9.52757C11.79 10.9275 10.6555 12.062 9.25556 12.062C7.85566 12.062 6.72066 10.9275 6.72066 9.52757Z" fill="#8D0101"/>
<path d="M9.25572 7.88327C10.1644 7.88327 10.9011 8.61988 10.9011 9.52864C10.9011 10.4373 10.1644 11.174 9.25572 11.174C8.34696 11.174 7.61035 10.4373 7.61035 9.52864C7.61035 8.61988 8.34696 7.88327 9.25572 7.88327Z" fill="#8D0101"/>
</svg>
