<svg width="11" height="14" viewBox="0 0 11 14" fill="none" xmlns="http://www.w3.org/2000/svg">
<path fill-rule="evenodd" clip-rule="evenodd" d="M1.78788 2.03777C2.7725 1.05315 4.10792 0.5 5.50038 0.5C6.89284 0.5 8.22826 1.05315 9.21288 2.03777C10.1975 3.02238 10.7506 4.35781 10.7506 5.75027C10.7506 7.14273 10.1975 8.47815 9.21288 9.46277L5.50038 13.1753L1.78788 9.46277C1.30031 8.97525 0.913554 8.39647 0.649684 7.75948C0.385813 7.12249 0.25 6.43975 0.25 5.75027C0.25 5.06078 0.385813 4.37805 0.649684 3.74106C0.913554 3.10406 1.30031 2.52528 1.78788 2.03777V2.03777ZM5.50038 7.25027C5.8982 7.25027 6.27973 7.09223 6.56104 6.81093C6.84234 6.52962 7.00038 6.14809 7.00038 5.75027C7.00038 5.35244 6.84234 4.97091 6.56104 4.68961C6.27973 4.4083 5.8982 4.25027 5.50038 4.25027C5.10255 4.25027 4.72102 4.4083 4.43972 4.68961C4.15841 4.97091 4.00038 5.35244 4.00038 5.75027C4.00038 6.14809 4.15841 6.52962 4.43972 6.81093C4.72102 7.09223 5.10255 7.25027 5.50038 7.25027Z" fill="#8D0101"/>
</svg>
