<svg width="19" height="19" viewBox="0 0 19 19" fill="none" xmlns="http://www.w3.org/2000/svg">
<path fill-rule="evenodd" clip-rule="evenodd" d="M9.2551 0.272949C4.14365 0.272949 0 4.4166 0 9.52805C0 14.6395 4.14365 18.7832 9.2551 18.7832C14.3666 18.7832 18.5102 14.6395 18.5102 9.52805C18.5102 4.4166 14.3666 0.272949 9.2551 0.272949ZM13.112 6.34709C13.5368 6.46365 13.8713 6.8071 13.9849 7.24325C14.1912 8.03372 14.1912 9.68304 14.1912 9.68304C14.1912 9.68304 14.1912 11.3323 13.9849 12.1228C13.8713 12.559 13.5368 12.9024 13.112 13.0191C12.3422 13.2308 9.25511 13.2308 9.25511 13.2308C9.25511 13.2308 6.168 13.2308 5.39814 13.0191C4.97336 12.9024 4.63883 12.559 4.5253 12.1228C4.31905 11.3323 4.31905 9.68304 4.31905 9.68304C4.31905 9.68304 4.31905 8.03372 4.5253 7.24325C4.63883 6.8071 4.97336 6.46365 5.39814 6.34709C6.168 6.13525 9.25511 6.13525 9.25511 6.13525C9.25511 6.13525 12.3422 6.13525 13.112 6.34709Z" fill="#8D0101"/>
<path d="M8.33008 11.3785V8.29346L10.7981 9.83603L8.33008 11.3785Z" fill="#8D0101"/>
</svg>
