<svg width="inherit" height="inherit" viewBox="0 0 253 48" fill="none" xmlns="http://www.w3.org/2000/svg">
<path d="M84.0936 13.5839V29.0846H81.8761V18.4602C81.8761 18.2879 81.8797 18.1014 81.8869 17.9004C81.9012 17.6923 81.9192 17.4842 81.9407 17.2761L76.9568 26.4796C76.763 26.86 76.4652 27.0501 76.0633 27.0501H75.7081C75.2991 27.0501 75.0013 26.86 74.8147 26.4796L69.7554 17.2546C69.7769 17.4627 69.7913 17.6708 69.7985 17.8789C69.8128 18.087 69.82 18.2808 69.82 18.4602V29.0846H67.6025V13.5839H69.4863C69.7088 13.5839 69.881 13.6054 70.003 13.6485C70.125 13.6844 70.2362 13.8028 70.3367 14.0037L75.3098 23.0135C75.4175 23.2216 75.518 23.4369 75.6112 23.6594C75.7117 23.8747 75.8014 24.0971 75.8804 24.3268C75.9665 24.0971 76.0562 23.8711 76.1495 23.6486C76.2499 23.419 76.354 23.2001 76.4616 22.992L81.3594 14.0037C81.4599 13.8028 81.5711 13.6844 81.6931 13.6485C81.8151 13.6054 81.9873 13.5839 82.2098 13.5839H84.0936Z" fill="white"/>
<path d="M91.7449 17.9327C92.5558 17.9327 93.2878 18.0655 93.9408 18.331C94.601 18.5965 95.1608 18.9733 95.62 19.4613C96.0865 19.9492 96.4453 20.5413 96.6965 21.2374C96.9477 21.9335 97.0732 22.7157 97.0732 23.584C97.0732 24.4523 96.9477 25.2346 96.6965 25.9306C96.4453 26.6267 96.0865 27.2224 95.62 27.7175C95.1608 28.2055 94.601 28.5823 93.9408 28.8478C93.2878 29.1133 92.5558 29.2461 91.7449 29.2461C90.9268 29.2461 90.1876 29.1133 89.5274 28.8478C88.8744 28.5823 88.3146 28.2055 87.8482 27.7175C87.3817 27.2224 87.0229 26.6267 86.7717 25.9306C86.5206 25.2346 86.395 24.4523 86.395 23.584C86.395 22.7157 86.5206 21.9335 86.7717 21.2374C87.0229 20.5413 87.3817 19.9492 87.8482 19.4613C88.3146 18.9733 88.8744 18.5965 89.5274 18.331C90.1876 18.0655 90.9268 17.9327 91.7449 17.9327ZM91.7449 27.4377C92.7352 27.4377 93.4708 27.1076 93.9516 26.4473C94.4396 25.7799 94.6835 24.8291 94.6835 23.5948C94.6835 22.3605 94.4396 21.4096 93.9516 20.7422C93.4708 20.0676 92.7352 19.7304 91.7449 19.7304C90.7402 19.7304 89.9939 20.0676 89.5059 20.7422C89.0179 21.4096 88.7739 22.3605 88.7739 23.5948C88.7739 24.8291 89.0179 25.7799 89.5059 26.4473C89.9939 27.1076 90.7402 27.4377 91.7449 27.4377Z" fill="white"/>
<path d="M108.554 18.1049V29.0846H107.155C106.846 29.0846 106.649 28.9375 106.563 28.6433L106.391 27.6207C106.161 27.8646 105.917 28.0871 105.659 28.288C105.408 28.489 105.138 28.6612 104.851 28.8047C104.564 28.9483 104.256 29.0595 103.926 29.1384C103.603 29.2174 103.255 29.2568 102.881 29.2568C102.279 29.2568 101.748 29.1564 101.288 28.9554C100.829 28.7545 100.442 28.471 100.126 28.1051C99.8172 27.7391 99.584 27.3013 99.4261 26.7918C99.2682 26.2751 99.1893 25.7082 99.1893 25.091V18.1049H101.504V25.091C101.504 25.8302 101.672 26.4043 102.01 26.8133C102.354 27.2224 102.874 27.4269 103.57 27.4269C104.08 27.4269 104.554 27.3121 104.991 27.0824C105.436 26.8456 105.852 26.5227 106.24 26.1136V18.1049H108.554Z" fill="white"/>
<path d="M113.528 19.5581C113.765 19.3141 114.009 19.0953 114.26 18.9015C114.519 18.7006 114.791 18.5283 115.079 18.3848C115.366 18.2413 115.671 18.1301 115.993 18.0511C116.316 17.9722 116.668 17.9327 117.048 17.9327C117.651 17.9327 118.179 18.0332 118.631 18.2341C119.09 18.435 119.474 18.7185 119.783 19.0845C120.098 19.4505 120.335 19.8918 120.493 20.4085C120.651 20.918 120.73 21.4814 120.73 22.0985V29.0846H118.426V22.0985C118.426 21.3594 118.254 20.7853 117.91 20.3762C117.572 19.9672 117.056 19.7627 116.359 19.7627C115.843 19.7627 115.362 19.8811 114.917 20.1179C114.479 20.3547 114.067 20.6776 113.679 21.0867V29.0846H111.365V18.1049H112.764C113.08 18.1049 113.281 18.2521 113.367 18.5463L113.528 19.5581Z" fill="white"/>
<path d="M126.805 29.2568C125.894 29.2568 125.191 29.0021 124.696 28.4926C124.208 27.9759 123.964 27.2511 123.964 26.3182V19.9241H122.758C122.629 19.9241 122.518 19.8847 122.424 19.8057C122.331 19.7196 122.284 19.594 122.284 19.429V18.4925L124.061 18.2341L124.566 15.0586C124.602 14.9366 124.663 14.8397 124.749 14.768C124.836 14.689 124.95 14.6496 125.094 14.6496H126.278V18.2556H129.324V19.9241H126.278V26.1567C126.278 26.5514 126.375 26.8528 126.569 27.0609C126.762 27.269 127.021 27.3731 127.344 27.3731C127.523 27.3731 127.677 27.3515 127.807 27.3085C127.936 27.2583 128.047 27.208 128.14 27.1578C128.234 27.1004 128.312 27.0501 128.377 27.0071C128.449 26.9569 128.517 26.9317 128.582 26.9317C128.711 26.9317 128.815 27.0035 128.894 27.147L129.583 28.2773C129.224 28.593 128.8 28.837 128.312 29.0093C127.825 29.1743 127.322 29.2568 126.805 29.2568Z" fill="white"/>
<path d="M147.705 25.6292C147.841 25.6292 147.959 25.6831 148.06 25.7907L149.061 26.8779C148.429 27.6386 147.654 28.227 146.736 28.6433C145.817 29.0523 144.719 29.2568 143.442 29.2568C142.308 29.2568 141.282 29.0631 140.363 28.6756C139.452 28.2809 138.673 27.7355 138.028 27.0394C137.382 26.3361 136.883 25.5001 136.531 24.5313C136.187 23.5625 136.015 22.4968 136.015 21.3343C136.015 20.1717 136.198 19.106 136.564 18.1372C136.937 17.1613 137.457 16.3252 138.124 15.6291C138.799 14.9259 139.603 14.3805 140.536 13.9929C141.476 13.6054 142.509 13.4117 143.636 13.4117C144.755 13.4117 145.742 13.5947 146.596 13.9606C147.457 14.3195 148.203 14.8003 148.835 15.4031L148.006 16.5764C147.949 16.6553 147.881 16.7235 147.802 16.7809C147.723 16.8383 147.615 16.867 147.479 16.867C147.335 16.867 147.17 16.8024 146.983 16.6733C146.804 16.5369 146.571 16.3898 146.284 16.2319C146.004 16.0669 145.649 15.9198 145.218 15.7906C144.795 15.6542 144.264 15.5861 143.625 15.5861C142.886 15.5861 142.208 15.7152 141.591 15.9736C140.973 16.2319 140.442 16.6087 139.997 17.1039C139.552 17.599 139.204 18.2018 138.953 18.9123C138.709 19.6227 138.587 20.43 138.587 21.3343C138.587 22.2456 138.716 23.0601 138.975 23.7778C139.233 24.4882 139.588 25.091 140.04 25.5862C140.493 26.0742 141.024 26.4473 141.634 26.7057C142.244 26.964 142.9 27.0932 143.603 27.0932C144.034 27.0932 144.418 27.0717 144.755 27.0286C145.1 26.9784 145.415 26.903 145.703 26.8026C145.99 26.6949 146.259 26.5622 146.51 26.4043C146.768 26.2464 147.023 26.0526 147.274 25.823C147.418 25.6938 147.561 25.6292 147.705 25.6292Z" fill="white"/>
<path d="M156.673 24.2837C155.848 24.3124 155.151 24.3806 154.584 24.4882C154.018 24.5887 153.558 24.7214 153.207 24.8865C152.855 25.0444 152.6 25.2346 152.442 25.457C152.292 25.6795 152.216 25.9235 152.216 26.189C152.216 26.4473 152.256 26.6698 152.335 26.8564C152.421 27.0358 152.536 27.1865 152.679 27.3085C152.83 27.4233 153.002 27.5094 153.196 27.5668C153.397 27.6171 153.616 27.6422 153.853 27.6422C154.455 27.6422 154.972 27.531 155.403 27.3085C155.84 27.0788 156.264 26.7487 156.673 26.3182V24.2837ZM150.537 19.6335C151.779 18.4781 153.257 17.9004 154.972 17.9004C155.604 17.9004 156.163 18.0045 156.651 18.2126C157.146 18.4135 157.559 18.7006 157.889 19.0737C158.226 19.4469 158.481 19.8918 158.653 20.4085C158.833 20.918 158.923 21.485 158.923 22.1093V29.0846H157.889C157.667 29.0846 157.498 29.0523 157.383 28.9877C157.268 28.916 157.172 28.776 157.093 28.5679L156.867 27.6745C156.587 27.9256 156.31 28.1517 156.038 28.3526C155.765 28.5464 155.482 28.7114 155.187 28.8478C154.9 28.9841 154.588 29.0846 154.251 29.1492C153.921 29.221 153.555 29.2568 153.153 29.2568C152.708 29.2568 152.292 29.1958 151.904 29.0738C151.524 28.9519 151.194 28.7689 150.914 28.5249C150.634 28.2737 150.411 27.9651 150.246 27.5991C150.089 27.2331 150.01 26.8026 150.01 26.3074C150.01 25.884 150.121 25.4714 150.343 25.0695C150.573 24.6676 150.946 24.3088 151.463 23.9931C151.987 23.6701 152.672 23.4046 153.519 23.1965C154.373 22.9884 155.424 22.87 156.673 22.8413V22.1093C156.673 21.3199 156.504 20.7314 156.167 20.3439C155.83 19.9564 155.334 19.7627 154.681 19.7627C154.236 19.7627 153.863 19.8201 153.562 19.9349C153.26 20.0425 152.999 20.1609 152.776 20.2901C152.554 20.4193 152.356 20.5413 152.184 20.6561C152.012 20.7637 151.829 20.8176 151.635 20.8176C151.477 20.8176 151.341 20.7781 151.226 20.6992C151.118 20.613 151.029 20.509 150.957 20.387L150.537 19.6335Z" fill="white"/>
<path d="M163.819 20.1394C164.163 19.4433 164.579 18.8979 165.067 18.5032C165.555 18.1014 166.14 17.9004 166.822 17.9004C167.059 17.9004 167.281 17.9291 167.489 17.9865C167.698 18.0368 167.884 18.1157 168.049 18.2233L167.888 19.9672C167.859 20.0892 167.812 20.1753 167.748 20.2255C167.69 20.2686 167.611 20.2901 167.511 20.2901C167.403 20.2901 167.249 20.2722 167.048 20.2363C166.847 20.1932 166.635 20.1717 166.413 20.1717C166.09 20.1717 165.803 20.2183 165.552 20.3116C165.308 20.4049 165.085 20.5413 164.884 20.7207C164.691 20.9001 164.518 21.119 164.368 21.3773C164.217 21.6357 164.077 21.9299 163.948 22.26V29.0846H161.634V18.1049H162.979C163.223 18.1049 163.392 18.1516 163.485 18.2449C163.578 18.331 163.643 18.4853 163.679 18.7077L163.819 20.1394Z" fill="white"/>
<path d="M169.581 29.0846V18.1049H170.98C171.296 18.1049 171.497 18.2521 171.583 18.5463L171.734 19.5043C171.935 19.2747 172.143 19.0666 172.358 18.88C172.573 18.6862 172.803 18.5212 173.047 18.3848C173.298 18.2413 173.564 18.1301 173.843 18.0511C174.131 17.9722 174.439 17.9327 174.769 17.9327C175.121 17.9327 175.444 17.9829 175.738 18.0834C176.032 18.1839 176.291 18.3274 176.513 18.514C176.743 18.7006 176.94 18.9266 177.105 19.1921C177.27 19.4577 177.406 19.7555 177.514 20.0856C177.679 19.7052 177.887 19.3787 178.138 19.106C178.39 18.8333 178.67 18.6109 178.978 18.4386C179.287 18.2664 179.613 18.1408 179.958 18.0619C180.309 17.9758 180.665 17.9327 181.023 17.9327C181.612 17.9327 182.136 18.026 182.595 18.2126C183.061 18.3992 183.452 18.6719 183.768 19.0307C184.091 19.3823 184.335 19.8165 184.5 20.3332C184.665 20.8499 184.748 21.4383 184.748 22.0985V29.0846H182.433V22.0985C182.433 21.3235 182.265 20.7422 181.928 20.3547C181.597 19.96 181.106 19.7627 180.453 19.7627C180.159 19.7627 179.882 19.8129 179.624 19.9134C179.366 20.0138 179.14 20.1609 178.946 20.3547C178.752 20.5485 178.598 20.7924 178.483 21.0867C178.375 21.3737 178.321 21.711 178.321 22.0985V29.0846H176.007V22.0985C176.007 21.2948 175.846 20.7063 175.523 20.3332C175.2 19.9528 174.726 19.7627 174.102 19.7627C173.671 19.7627 173.273 19.8739 172.907 20.0963C172.541 20.3116 172.204 20.6095 171.895 20.9898V29.0846H169.581Z" fill="white"/>
<path d="M194.653 22.3569C194.653 21.9694 194.595 21.6105 194.48 21.2804C194.373 20.9431 194.211 20.6525 193.996 20.4085C193.781 20.1573 193.512 19.9636 193.189 19.8272C192.873 19.6837 192.507 19.612 192.091 19.612C191.251 19.612 190.591 19.8524 190.11 20.3332C189.629 20.814 189.324 21.4885 189.195 22.3569H194.653ZM189.131 23.7778C189.159 24.4021 189.256 24.9439 189.421 25.4032C189.586 25.8553 189.805 26.232 190.078 26.5335C190.358 26.8349 190.688 27.0609 191.068 27.2116C191.456 27.3551 191.886 27.4269 192.36 27.4269C192.812 27.4269 193.203 27.3767 193.533 27.2762C193.863 27.1686 194.15 27.0537 194.394 26.9317C194.638 26.8026 194.846 26.6877 195.019 26.5873C195.191 26.4796 195.349 26.4258 195.492 26.4258C195.679 26.4258 195.822 26.4976 195.923 26.6411L196.58 27.4915C196.307 27.8144 195.998 28.0871 195.654 28.3096C195.309 28.532 194.943 28.715 194.556 28.8586C194.168 28.9949 193.77 29.0918 193.361 29.1492C192.952 29.2138 192.554 29.2461 192.166 29.2461C191.405 29.2461 190.699 29.1205 190.046 28.8693C189.4 28.611 188.836 28.2342 188.356 27.7391C187.882 27.2439 187.509 26.6303 187.236 25.8984C186.971 25.1664 186.838 24.3232 186.838 23.3687C186.838 22.608 186.956 21.8976 187.193 21.2374C187.437 20.5772 187.781 20.0031 188.226 19.5151C188.678 19.0271 189.224 18.6432 189.863 18.3633C190.508 18.0762 191.237 17.9327 192.048 17.9327C192.722 17.9327 193.347 18.0439 193.921 18.2664C194.495 18.4817 194.99 18.801 195.406 19.2244C195.822 19.6478 196.145 20.1681 196.375 20.7853C196.612 21.3953 196.73 22.0913 196.73 22.8736C196.73 23.2324 196.691 23.4728 196.612 23.5948C196.533 23.7168 196.389 23.7778 196.181 23.7778H189.131Z" fill="white"/>
<path d="M201.246 13.1533V29.0846H198.932V13.1533H201.246Z" fill="white"/>
<path d="M71.4323 43.3611C71.8597 43.3611 72.2195 43.3124 72.5117 43.2151C72.8093 43.1123 73.05 42.9743 73.234 42.8012C73.4234 42.628 73.5586 42.4251 73.6398 42.1925C73.7263 41.9544 73.7696 41.7001 73.7696 41.4296C73.7696 40.8777 73.5803 40.4449 73.2015 40.1311C72.8282 39.8119 72.2358 39.6523 71.4242 39.6523H69.0788V43.3611H71.4323ZM69.0788 34.6611V38.3132H70.9778C71.7894 38.3132 72.3954 38.1563 72.7957 37.8425C73.1961 37.5287 73.3963 37.0769 73.3963 36.4871C73.3963 35.8433 73.2069 35.378 72.8282 35.0912C72.4549 34.8045 71.8679 34.6611 71.0671 34.6611H69.0788ZM71.0671 33.1759C71.8137 33.1759 72.4522 33.249 72.9824 33.3951C73.5126 33.5357 73.9482 33.7386 74.289 34.0037C74.6299 34.2689 74.8788 34.5935 75.0357 34.9776C75.198 35.3564 75.2791 35.7838 75.2791 36.2599C75.2791 36.5358 75.2359 36.8037 75.1493 37.0634C75.0681 37.3177 74.9383 37.5584 74.7597 37.7857C74.5866 38.0075 74.3675 38.2077 74.1024 38.3862C73.8373 38.5648 73.5235 38.7136 73.161 38.8326C74.8166 39.1843 75.6444 40.0635 75.6444 41.4702C75.6444 41.9679 75.5497 42.4251 75.3603 42.8417C75.1764 43.2529 74.9058 43.61 74.5487 43.913C74.1971 44.2106 73.7615 44.4432 73.2421 44.611C72.7227 44.7787 72.1303 44.8625 71.4648 44.8625H67.1797V33.1759H71.0671Z" fill="white"/>
<path d="M79.1188 36.5845V44.8625H77.3739V36.5845H79.1188ZM79.4109 34.0849C79.4109 34.2418 79.3785 34.3906 79.3135 34.5313C79.254 34.6719 79.1702 34.7964 79.0619 34.9046C78.9537 35.0074 78.8266 35.0912 78.6805 35.1562C78.5398 35.2157 78.3883 35.2454 78.226 35.2454C78.0691 35.2454 77.9203 35.2157 77.7797 35.1562C77.6444 35.0912 77.5254 35.0074 77.4226 34.9046C77.3198 34.7964 77.2359 34.6719 77.171 34.5313C77.1115 34.3906 77.0817 34.2418 77.0817 34.0849C77.0817 33.9226 77.1115 33.7711 77.171 33.6304C77.2359 33.4898 77.3198 33.368 77.4226 33.2652C77.5254 33.157 77.6444 33.0731 77.7797 33.0136C77.9203 32.9487 78.0691 32.9162 78.226 32.9162C78.3883 32.9162 78.5398 32.9487 78.6805 33.0136C78.8266 33.0731 78.9537 33.157 79.0619 33.2652C79.1702 33.368 79.254 33.4898 79.3135 33.6304C79.3785 33.7711 79.4109 33.9226 79.4109 34.0849Z" fill="white"/>
<path d="M83.056 42.7849C83.2995 43.0987 83.5646 43.3206 83.8514 43.4504C84.1435 43.5749 84.46 43.6371 84.8009 43.6371C85.488 43.6371 86.0237 43.3882 86.4078 42.8904C86.7919 42.3927 86.984 41.6217 86.984 40.5775C86.984 39.6252 86.8163 38.93 86.4808 38.4917C86.1508 38.0535 85.6774 37.8344 85.0606 37.8344C84.6332 37.8344 84.2598 37.9317 83.9406 38.1265C83.6268 38.3159 83.3319 38.5891 83.056 38.9462V42.7849ZM83.056 37.6802C83.3969 37.3068 83.7783 37.0093 84.2003 36.7874C84.6223 36.5656 85.1039 36.4547 85.6449 36.4547C86.1264 36.4547 86.5593 36.5494 86.9434 36.7387C87.333 36.9227 87.663 37.1905 87.9335 37.5422C88.2041 37.8939 88.4124 38.3213 88.5585 38.8245C88.7045 39.3222 88.7776 39.8849 88.7776 40.5125C88.7776 41.1834 88.6937 41.7948 88.526 42.3467C88.3637 42.8931 88.1283 43.3638 87.8199 43.7588C87.5115 44.1484 87.1382 44.4513 86.7 44.6678C86.2617 44.8788 85.7721 44.9843 85.231 44.9843C84.9659 44.9843 84.7251 44.9572 84.5087 44.9031C84.2923 44.8544 84.0921 44.7814 83.9082 44.684C83.7242 44.5866 83.5538 44.4703 83.3969 44.335C83.2454 44.1998 83.0993 44.0456 82.9586 43.8724L82.8856 44.5136C82.8585 44.638 82.8098 44.7273 82.7395 44.7814C82.6692 44.8355 82.5718 44.8625 82.4473 44.8625H81.3111V32.8513H83.056V37.6802Z" fill="white"/>
<path d="M92.2503 32.8513V44.8625H90.5055V32.8513H92.2503Z" fill="white"/>
<path d="M99.8334 39.7902C99.8334 39.4981 99.7901 39.2275 99.7036 38.9787C99.6224 38.7244 99.5007 38.5053 99.3384 38.3213C99.1761 38.1319 98.9732 37.9858 98.7297 37.883C98.4916 37.7748 98.2157 37.7207 97.9019 37.7207C97.2689 37.7207 96.7711 37.902 96.4086 38.2645C96.0461 38.627 95.8162 39.1356 95.7188 39.7902H99.8334ZM95.6701 40.8615C95.6917 41.3322 95.7648 41.7407 95.8892 42.087C96.0136 42.4278 96.1787 42.7119 96.3843 42.9391C96.5953 43.1664 96.8442 43.3368 97.1309 43.4504C97.4231 43.5586 97.7477 43.6127 98.1048 43.6127C98.4456 43.6127 98.7405 43.5749 98.9894 43.4991C99.2383 43.418 99.4547 43.3314 99.6387 43.2394C99.8226 43.142 99.9795 43.0554 100.109 42.9797C100.239 42.8985 100.358 42.858 100.466 42.858C100.607 42.858 100.715 42.9121 100.791 43.0203L101.286 43.6614C101.081 43.9049 100.848 44.1105 100.588 44.2782C100.328 44.4459 100.053 44.5839 99.7604 44.6921C99.4682 44.7949 99.1679 44.868 98.8595 44.9112C98.5512 44.9599 98.2509 44.9843 97.9587 44.9843C97.3852 44.9843 96.8523 44.8896 96.3599 44.7002C95.873 44.5055 95.4482 44.2214 95.0857 43.8481C94.7287 43.4748 94.4473 43.0122 94.2417 42.4603C94.0415 41.9084 93.9414 41.2727 93.9414 40.5531C93.9414 39.9796 94.0307 39.444 94.2093 38.9462C94.3932 38.4484 94.6529 38.0156 94.9884 37.6477C95.3292 37.2798 95.7404 36.9903 96.2219 36.7793C96.7089 36.5629 97.2581 36.4547 97.8694 36.4547C98.378 36.4547 98.8487 36.5385 99.2816 36.7063C99.7144 36.8686 100.088 37.1094 100.402 37.4286C100.715 37.7478 100.959 38.14 101.132 38.6053C101.31 39.0652 101.4 39.59 101.4 40.1798C101.4 40.4503 101.37 40.6316 101.31 40.7235C101.251 40.8155 101.143 40.8615 100.986 40.8615H95.6701Z" fill="white"/>
<path d="M102.93 39.2384H107.044V40.7154H102.93V39.2384Z" fill="white"/>
<path d="M113.027 39.1329C113.449 39.1329 113.819 39.0788 114.138 38.9706C114.463 38.8623 114.731 38.7108 114.942 38.5161C115.158 38.3159 115.321 38.0751 115.429 37.7938C115.537 37.5124 115.591 37.1986 115.591 36.8524C115.591 36.5115 115.537 36.2058 115.429 35.9353C115.326 35.6648 115.169 35.4348 114.958 35.2454C114.747 35.0561 114.479 34.9127 114.155 34.8153C113.835 34.7125 113.459 34.6611 113.027 34.6611H111.29V39.1329H113.027ZM113.027 33.1759C113.79 33.1759 114.45 33.2652 115.007 33.4438C115.57 33.6223 116.032 33.8739 116.395 34.1985C116.763 34.5177 117.036 34.9046 117.214 35.3591C117.393 35.8081 117.482 36.3059 117.482 36.8524C117.482 37.4096 117.387 37.9209 117.198 38.3862C117.009 38.8461 116.727 39.2438 116.354 39.5792C115.981 39.9093 115.515 40.169 114.958 40.3583C114.406 40.5423 113.762 40.6343 113.027 40.6343H111.29V44.8625H109.391V33.1759H113.027Z" fill="white"/>
<path d="M120.478 38.1184C120.738 37.5936 121.051 37.1824 121.419 36.8848C121.787 36.5818 122.228 36.4303 122.742 36.4303C122.921 36.4303 123.088 36.452 123.245 36.4953C123.402 36.5331 123.543 36.5927 123.667 36.6738L123.546 37.9886C123.524 38.0805 123.489 38.1455 123.44 38.1833C123.397 38.2158 123.337 38.232 123.262 38.232C123.18 38.232 123.064 38.2185 122.913 38.1914C122.761 38.159 122.601 38.1427 122.434 38.1427C122.19 38.1427 121.974 38.1779 121.784 38.2483C121.601 38.3186 121.433 38.4214 121.281 38.5567C121.135 38.6919 121.005 38.8569 120.892 39.0517C120.778 39.2465 120.673 39.4683 120.575 39.7172V44.8625H118.83V36.5845H119.845C120.029 36.5845 120.156 36.6197 120.226 36.69C120.297 36.755 120.345 36.8713 120.372 37.039L120.478 38.1184Z" fill="white"/>
<path d="M129.966 39.7902C129.966 39.4981 129.923 39.2275 129.836 38.9787C129.755 38.7244 129.633 38.5053 129.471 38.3213C129.309 38.1319 129.106 37.9858 128.862 37.883C128.624 37.7748 128.348 37.7207 128.035 37.7207C127.402 37.7207 126.904 37.902 126.541 38.2645C126.179 38.627 125.949 39.1356 125.851 39.7902H129.966ZM125.803 40.8615C125.824 41.3322 125.897 41.7407 126.022 42.087C126.146 42.4278 126.311 42.7119 126.517 42.9391C126.728 43.1664 126.977 43.3368 127.264 43.4504C127.556 43.5586 127.88 43.6127 128.237 43.6127C128.578 43.6127 128.873 43.5749 129.122 43.4991C129.371 43.418 129.587 43.3314 129.771 43.2394C129.955 43.142 130.112 43.0554 130.242 42.9797C130.372 42.8985 130.491 42.858 130.599 42.858C130.74 42.858 130.848 42.9121 130.924 43.0203L131.419 43.6614C131.213 43.9049 130.981 44.1105 130.721 44.2782C130.461 44.4459 130.185 44.5839 129.893 44.6921C129.601 44.7949 129.301 44.868 128.992 44.9112C128.684 44.9599 128.384 44.9843 128.091 44.9843C127.518 44.9843 126.985 44.8896 126.493 44.7002C126.006 44.5055 125.581 44.2214 125.218 43.8481C124.861 43.4748 124.58 43.0122 124.374 42.4603C124.174 41.9084 124.074 41.2727 124.074 40.5531C124.074 39.9796 124.163 39.444 124.342 38.9462C124.526 38.4484 124.786 38.0156 125.121 37.6477C125.462 37.2798 125.873 36.9903 126.355 36.7793C126.842 36.5629 127.391 36.4547 128.002 36.4547C128.511 36.4547 128.981 36.5385 129.414 36.7063C129.847 36.8686 130.22 37.1094 130.534 37.4286C130.848 37.7478 131.091 38.14 131.265 38.6053C131.443 39.0652 131.532 39.59 131.532 40.1798C131.532 40.4503 131.503 40.6316 131.443 40.7235C131.384 40.8155 131.275 40.8615 131.119 40.8615H125.803Z" fill="white"/>
<path d="M138.102 38.0859C138.059 38.1617 138.01 38.2158 137.956 38.2483C137.902 38.2807 137.834 38.2969 137.753 38.2969C137.661 38.2969 137.561 38.2699 137.453 38.2158C137.345 38.1563 137.217 38.0914 137.071 38.021C136.925 37.9507 136.752 37.8885 136.552 37.8344C136.357 37.7748 136.127 37.7451 135.862 37.7451C135.646 37.7451 135.448 37.7721 135.27 37.8262C135.097 37.8749 134.948 37.948 134.823 38.0454C134.704 38.1373 134.612 38.2483 134.547 38.3781C134.482 38.5025 134.45 38.6378 134.45 38.7839C134.45 38.9787 134.51 39.141 134.629 39.2708C134.748 39.4007 134.905 39.5143 135.099 39.6117C135.294 39.7037 135.516 39.7875 135.765 39.8633C136.014 39.939 136.268 40.0202 136.528 40.1067C136.787 40.1933 137.042 40.2934 137.291 40.407C137.539 40.5206 137.761 40.6613 137.956 40.829C138.151 40.9914 138.308 41.1915 138.427 41.4296C138.546 41.6623 138.605 41.9463 138.605 42.2818C138.605 42.6713 138.535 43.0311 138.394 43.3611C138.254 43.6912 138.048 43.9779 137.777 44.2214C137.507 44.4649 137.169 44.6542 136.763 44.7895C136.363 44.9248 135.903 44.9924 135.383 44.9924C135.097 44.9924 134.818 44.9653 134.547 44.9112C134.282 44.8625 134.028 44.7949 133.785 44.7083C133.546 44.6164 133.322 44.5082 133.111 44.3837C132.905 44.2593 132.721 44.124 132.559 43.9779L132.965 43.3124C133.014 43.2313 133.073 43.1691 133.143 43.1258C133.219 43.0771 133.311 43.0527 133.419 43.0527C133.533 43.0527 133.644 43.0906 133.752 43.1664C133.866 43.2367 133.996 43.3152 134.142 43.4017C134.293 43.4883 134.474 43.5694 134.685 43.6452C134.896 43.7155 135.159 43.7507 135.473 43.7507C135.732 43.7507 135.957 43.7209 136.146 43.6614C136.336 43.5965 136.492 43.5099 136.617 43.4017C136.741 43.2935 136.833 43.1718 136.893 43.0365C136.952 42.8958 136.982 42.7471 136.982 42.5902C136.982 42.3791 136.923 42.206 136.804 42.0707C136.685 41.9355 136.525 41.8192 136.325 41.7218C136.13 41.6244 135.905 41.5378 135.651 41.4621C135.402 41.3863 135.148 41.3052 134.888 41.2186C134.629 41.132 134.372 41.0319 134.117 40.9183C133.868 40.8047 133.644 40.6613 133.444 40.4882C133.249 40.3096 133.092 40.0959 132.973 39.847C132.854 39.5928 132.794 39.2844 132.794 38.9219C132.794 38.5918 132.859 38.278 132.989 37.9804C133.124 37.6829 133.319 37.4205 133.574 37.1932C133.833 36.966 134.15 36.7874 134.523 36.6576C134.902 36.5223 135.337 36.4547 135.83 36.4547C136.387 36.4547 136.893 36.544 137.347 36.7225C137.802 36.901 138.183 37.1445 138.492 37.4529L138.102 38.0859Z" fill="white"/>
<path d="M141.99 42.7849C142.233 43.0987 142.498 43.3206 142.785 43.4504C143.077 43.5749 143.394 43.6371 143.735 43.6371C144.422 43.6371 144.958 43.3882 145.342 42.8904C145.726 42.3927 145.918 41.6217 145.918 40.5775C145.918 39.6252 145.75 38.93 145.415 38.4917C145.085 38.0535 144.611 37.8344 143.994 37.8344C143.567 37.8344 143.194 37.9317 142.875 38.1265C142.561 38.3159 142.266 38.5891 141.99 38.9462V42.7849ZM141.99 37.6802C142.331 37.3068 142.712 37.0093 143.134 36.7874C143.556 36.5656 144.038 36.4547 144.579 36.4547C145.06 36.4547 145.493 36.5494 145.877 36.7387C146.267 36.9227 146.597 37.1905 146.867 37.5422C147.138 37.8939 147.346 38.3213 147.492 38.8245C147.638 39.3222 147.711 39.8849 147.711 40.5125C147.711 41.1834 147.628 41.7948 147.46 42.3467C147.298 42.8931 147.062 43.3638 146.754 43.7588C146.445 44.1484 146.072 44.4513 145.634 44.6678C145.196 44.8788 144.706 44.9843 144.165 44.9843C143.9 44.9843 143.659 44.9572 143.443 44.9031C143.226 44.8544 143.026 44.7814 142.842 44.684C142.658 44.5866 142.488 44.4703 142.331 44.335C142.179 44.1998 142.033 44.0456 141.893 43.8724L141.819 44.5136C141.792 44.638 141.744 44.7273 141.673 44.7814C141.603 44.8355 141.506 44.8625 141.381 44.8625H140.245V32.8513H141.99V37.6802Z" fill="white"/>
<path d="M156.53 36.5845L151.969 47.2161C151.909 47.3405 151.836 47.4379 151.75 47.5083C151.668 47.5786 151.541 47.6138 151.368 47.6138H150.078L151.603 44.3026L148.227 36.5845H149.745C149.891 36.5845 150.002 36.6197 150.078 36.69C150.159 36.755 150.218 36.8334 150.256 36.9254L152.228 41.6244C152.277 41.7596 152.32 41.8949 152.358 42.0302C152.401 42.16 152.442 42.2953 152.48 42.436C152.523 42.2953 152.566 42.1573 152.61 42.0221C152.653 41.8868 152.702 41.7515 152.756 41.6163L154.647 36.9254C154.685 36.828 154.747 36.7469 154.833 36.6819C154.925 36.617 155.026 36.5845 155.134 36.5845H156.53Z" fill="white"/>
<path d="M160.319 44.9924C159.632 44.9924 159.102 44.8003 158.728 44.4162C158.36 44.0266 158.177 43.4802 158.177 42.7768V37.9561H157.268C157.17 37.9561 157.086 37.9263 157.016 37.8668C156.946 37.8019 156.91 37.7072 156.91 37.5828V36.8767L158.25 36.6819L158.631 34.2878C158.658 34.1958 158.704 34.1228 158.769 34.0687C158.834 34.0092 158.92 33.9794 159.029 33.9794H159.921V36.6982H162.218V37.9561H159.921V42.6551C159.921 42.9527 159.994 43.1799 160.141 43.3368C160.287 43.4937 160.481 43.5721 160.725 43.5721C160.86 43.5721 160.976 43.5559 161.074 43.5235C161.171 43.4856 161.255 43.4477 161.325 43.4098C161.396 43.3666 161.455 43.3287 161.504 43.2962C161.558 43.2583 161.609 43.2394 161.658 43.2394C161.756 43.2394 161.834 43.2935 161.894 43.4017L162.413 44.2539C162.142 44.4919 161.823 44.6759 161.455 44.8057C161.087 44.9302 160.709 44.9924 160.319 44.9924Z" fill="white"/>
<path d="M168.959 39.7902C168.959 39.4981 168.916 39.2275 168.83 38.9787C168.748 38.7244 168.627 38.5053 168.464 38.3213C168.302 38.1319 168.099 37.9858 167.856 37.883C167.618 37.7748 167.342 37.7207 167.028 37.7207C166.395 37.7207 165.897 37.902 165.535 38.2645C165.172 38.627 164.942 39.1356 164.845 39.7902H168.959ZM164.796 40.8615C164.818 41.3322 164.891 41.7407 165.015 42.087C165.14 42.4278 165.305 42.7119 165.51 42.9391C165.721 43.1664 165.97 43.3368 166.257 43.4504C166.549 43.5586 166.874 43.6127 167.231 43.6127C167.572 43.6127 167.867 43.5749 168.115 43.4991C168.364 43.418 168.581 43.3314 168.765 43.2394C168.949 43.142 169.106 43.0554 169.235 42.9797C169.365 42.8985 169.484 42.858 169.592 42.858C169.733 42.858 169.841 42.9121 169.917 43.0203L170.412 43.6614C170.207 43.9049 169.974 44.1105 169.714 44.2782C169.455 44.4459 169.179 44.5839 168.886 44.6921C168.594 44.7949 168.294 44.868 167.986 44.9112C167.677 44.9599 167.377 44.9843 167.085 44.9843C166.511 44.9843 165.978 44.8896 165.486 44.7002C164.999 44.5055 164.574 44.2214 164.212 43.8481C163.855 43.4748 163.573 43.0122 163.368 42.4603C163.168 41.9084 163.067 41.2727 163.067 40.5531C163.067 39.9796 163.157 39.444 163.335 38.9462C163.519 38.4484 163.779 38.0156 164.114 37.6477C164.455 37.2798 164.866 36.9903 165.348 36.7793C165.835 36.5629 166.384 36.4547 166.995 36.4547C167.504 36.4547 167.975 36.5385 168.408 36.7063C168.84 36.8686 169.214 37.1094 169.528 37.4286C169.841 37.7478 170.085 38.14 170.258 38.6053C170.437 39.0652 170.526 39.59 170.526 40.1798C170.526 40.4503 170.496 40.6316 170.437 40.7235C170.377 40.8155 170.269 40.8615 170.112 40.8615H164.796Z" fill="white"/>
<path d="M173.8 38.1184C174.06 37.5936 174.374 37.1824 174.742 36.8848C175.11 36.5818 175.551 36.4303 176.065 36.4303C176.243 36.4303 176.411 36.452 176.568 36.4953C176.725 36.5331 176.866 36.5927 176.99 36.6738L176.868 37.9886C176.847 38.0805 176.811 38.1455 176.763 38.1833C176.719 38.2158 176.66 38.232 176.584 38.232C176.503 38.232 176.387 38.2185 176.235 38.1914C176.084 38.159 175.924 38.1427 175.756 38.1427C175.513 38.1427 175.296 38.1779 175.107 38.2483C174.923 38.3186 174.755 38.4214 174.604 38.5567C174.458 38.6919 174.328 38.8569 174.214 39.0517C174.101 39.2465 173.995 39.4683 173.898 39.7172V44.8625H172.153V36.5845H173.167C173.351 36.5845 173.479 36.6197 173.549 36.69C173.619 36.755 173.668 36.8713 173.695 37.039L173.8 38.1184Z" fill="white"/>
<path d="M179.963 36.5845V44.8625H178.218V36.5845H179.963ZM180.255 34.0849C180.255 34.2418 180.222 34.3906 180.157 34.5313C180.098 34.6719 180.014 34.7964 179.906 34.9046C179.798 35.0074 179.67 35.0912 179.524 35.1562C179.384 35.2157 179.232 35.2454 179.07 35.2454C178.913 35.2454 178.764 35.2157 178.623 35.1562C178.488 35.0912 178.369 35.0074 178.266 34.9046C178.164 34.7964 178.08 34.6719 178.015 34.5313C177.955 34.3906 177.926 34.2418 177.926 34.0849C177.926 33.9226 177.955 33.7711 178.015 33.6304C178.08 33.4898 178.164 33.368 178.266 33.2652C178.369 33.157 178.488 33.0731 178.623 33.0136C178.764 32.9487 178.913 32.9162 179.07 32.9162C179.232 32.9162 179.384 32.9487 179.524 33.0136C179.67 33.0731 179.798 33.157 179.906 33.2652C180.014 33.368 180.098 33.4898 180.157 33.6304C180.222 33.7711 180.255 33.9226 180.255 34.0849Z" fill="white"/>
<path d="M186.578 41.2429C185.956 41.2646 185.431 41.316 185.004 41.3971C184.576 41.4729 184.23 41.573 183.965 41.6974C183.7 41.8165 183.508 41.9598 183.389 42.1276C183.275 42.2953 183.218 42.4792 183.218 42.6794C183.218 42.8742 183.248 43.0419 183.307 43.1826C183.372 43.3179 183.459 43.4315 183.567 43.5235C183.681 43.61 183.811 43.6749 183.957 43.7182C184.108 43.7561 184.273 43.775 184.452 43.775C184.906 43.775 185.296 43.6912 185.62 43.5235C185.95 43.3503 186.27 43.1014 186.578 42.7768V41.2429ZM181.952 37.737C182.888 36.8659 184.003 36.4303 185.296 36.4303C185.772 36.4303 186.194 36.5088 186.562 36.6657C186.935 36.8172 187.246 37.0336 187.495 37.3149C187.749 37.5963 187.941 37.9317 188.071 38.3213C188.207 38.7054 188.274 39.1329 188.274 39.6036V44.8625H187.495C187.327 44.8625 187.2 44.8382 187.114 44.7895C187.027 44.7354 186.954 44.6299 186.895 44.473L186.724 43.7994C186.513 43.9888 186.305 44.1592 186.099 44.3107C185.894 44.4568 185.68 44.5812 185.458 44.684C185.242 44.7868 185.006 44.8625 184.752 44.9112C184.503 44.9653 184.227 44.9924 183.924 44.9924C183.589 44.9924 183.275 44.9464 182.983 44.8544C182.696 44.7625 182.447 44.6245 182.236 44.4405C182.025 44.2512 181.857 44.0185 181.733 43.7426C181.614 43.4666 181.554 43.142 181.554 42.7687C181.554 42.4495 181.638 42.1384 181.806 41.8354C181.979 41.5324 182.26 41.2619 182.65 41.0238C183.045 40.7804 183.562 40.5802 184.2 40.4233C184.844 40.2664 185.637 40.1771 186.578 40.1554V39.6036C186.578 39.0084 186.451 38.5648 186.197 38.2726C185.942 37.9804 185.569 37.8344 185.077 37.8344C184.741 37.8344 184.46 37.8776 184.233 37.9642C184.005 38.0454 183.808 38.1346 183.64 38.232C183.472 38.3294 183.324 38.4214 183.194 38.508C183.064 38.5891 182.926 38.6297 182.78 38.6297C182.661 38.6297 182.558 38.5999 182.471 38.5404C182.39 38.4755 182.323 38.397 182.269 38.3051L181.952 37.737Z" fill="white"/>
<path d="M191.949 37.6802C192.128 37.4962 192.312 37.3312 192.501 37.1851C192.696 37.0336 192.902 36.9038 193.118 36.7955C193.335 36.6873 193.564 36.6035 193.808 36.544C194.051 36.4844 194.317 36.4547 194.603 36.4547C195.058 36.4547 195.455 36.5304 195.796 36.6819C196.143 36.8334 196.432 37.0471 196.665 37.3231C196.903 37.599 197.081 37.9317 197.2 38.3213C197.319 38.7054 197.379 39.1302 197.379 39.5955V44.8625H195.642V39.5955C195.642 39.0382 195.512 38.6053 195.253 38.2969C194.998 37.9886 194.609 37.8344 194.084 37.8344C193.694 37.8344 193.332 37.9236 192.996 38.1022C192.666 38.2807 192.355 38.5242 192.063 38.8326V44.8625H190.318V36.5845H191.373C191.611 36.5845 191.763 36.6955 191.828 36.9173L191.949 37.6802Z" fill="white"/>
<path d="M211.899 42.2574C212.002 42.2574 212.091 42.298 212.167 42.3791L212.922 43.1988C212.445 43.7723 211.861 44.216 211.169 44.5298C210.476 44.8382 209.648 44.9924 208.685 44.9924C207.83 44.9924 207.057 44.8463 206.364 44.5541C205.677 44.2566 205.09 43.8454 204.603 43.3206C204.116 42.7903 203.74 42.16 203.475 41.4296C203.215 40.6992 203.085 39.8957 203.085 39.0192C203.085 38.1427 203.223 37.3393 203.499 36.6089C203.781 35.8731 204.173 35.2427 204.676 34.7179C205.185 34.1877 205.791 33.7765 206.494 33.4843C207.203 33.1922 207.982 33.0461 208.831 33.0461C209.675 33.0461 210.419 33.1841 211.063 33.46C211.712 33.7305 212.275 34.093 212.751 34.5475L212.126 35.4321C212.083 35.4916 212.032 35.543 211.972 35.5863C211.912 35.6296 211.831 35.6512 211.729 35.6512C211.62 35.6512 211.496 35.6025 211.355 35.5052C211.22 35.4024 211.044 35.2914 210.828 35.1724C210.617 35.048 210.349 34.9371 210.024 34.8397C209.705 34.7369 209.305 34.6855 208.823 34.6855C208.266 34.6855 207.755 34.7829 207.289 34.9776C206.824 35.1724 206.424 35.4565 206.088 35.8298C205.753 36.2031 205.49 36.6576 205.301 37.1932C205.117 37.7288 205.025 38.3375 205.025 39.0192C205.025 39.7064 205.122 40.3205 205.317 40.8615C205.512 41.3971 205.78 41.8516 206.121 42.2249C206.461 42.5929 206.862 42.8742 207.322 43.069C207.782 43.2638 208.277 43.3611 208.807 43.3611C209.132 43.3611 209.421 43.3449 209.675 43.3124C209.935 43.2746 210.173 43.2178 210.389 43.142C210.606 43.0609 210.809 42.9608 210.998 42.8417C211.193 42.7227 211.385 42.5766 211.574 42.4035C211.683 42.3061 211.791 42.2574 211.899 42.2574Z" fill="white"/>
<path d="M215.982 37.5665C216.323 37.2311 216.696 36.9633 217.102 36.7631C217.508 36.5575 217.981 36.4547 218.522 36.4547C218.977 36.4547 219.375 36.5304 219.715 36.6819C220.062 36.8334 220.351 37.0471 220.584 37.3231C220.822 37.599 221 37.9317 221.119 38.3213C221.238 38.7054 221.298 39.1302 221.298 39.5955V44.8625H219.561V39.5955C219.561 39.0382 219.431 38.6053 219.172 38.2969C218.917 37.9886 218.528 37.8344 218.003 37.8344C217.613 37.8344 217.251 37.9236 216.915 38.1022C216.585 38.2807 216.274 38.5242 215.982 38.8326V44.8625H214.237V32.8513H215.982V37.5665Z" fill="white"/>
<path d="M230.315 36.5845V44.8625H229.26C229.028 44.8625 228.879 44.7516 228.814 44.5298L228.684 43.7588C228.511 43.9428 228.327 44.1105 228.132 44.262C227.943 44.4135 227.74 44.5433 227.523 44.6515C227.307 44.7597 227.074 44.8436 226.826 44.9031C226.582 44.9626 226.32 44.9924 226.038 44.9924C225.584 44.9924 225.183 44.9166 224.837 44.7652C224.491 44.6137 224.199 44.4 223.961 44.124C223.728 43.8481 223.552 43.518 223.433 43.1339C223.314 42.7443 223.255 42.3169 223.255 41.8516V36.5845H224.999V41.8516C224.999 42.4089 225.127 42.8417 225.381 43.1501C225.641 43.4585 226.033 43.6127 226.558 43.6127C226.942 43.6127 227.299 43.5262 227.629 43.353C227.964 43.1745 228.278 42.931 228.57 42.6226V36.5845H230.315Z" fill="white"/>
<path d="M234.082 38.1184C234.341 37.5936 234.655 37.1824 235.023 36.8848C235.391 36.5818 235.832 36.4303 236.346 36.4303C236.525 36.4303 236.692 36.452 236.849 36.4953C237.006 36.5331 237.147 36.5927 237.271 36.6738L237.149 37.9886C237.128 38.0805 237.093 38.1455 237.044 38.1833C237.001 38.2158 236.941 38.232 236.865 38.232C236.784 38.232 236.668 38.2185 236.516 38.1914C236.365 38.159 236.205 38.1427 236.038 38.1427C235.794 38.1427 235.578 38.1779 235.388 38.2483C235.204 38.3186 235.037 38.4214 234.885 38.5567C234.739 38.6919 234.609 38.8569 234.496 39.0517C234.382 39.2465 234.276 39.4683 234.179 39.7172V44.8625H232.434V36.5845H233.449C233.633 36.5845 233.76 36.6197 233.83 36.69C233.9 36.755 233.949 36.8713 233.976 37.039L234.082 38.1184Z" fill="white"/>
<path d="M243.992 38.2077C243.938 38.278 243.886 38.3321 243.838 38.37C243.789 38.4079 243.719 38.4268 243.627 38.4268C243.535 38.4268 243.437 38.3943 243.335 38.3294C243.237 38.2645 243.118 38.1941 242.978 38.1184C242.842 38.0372 242.677 37.9642 242.482 37.8993C242.288 37.8344 242.044 37.8019 241.752 37.8019C241.373 37.8019 241.041 37.8695 240.754 38.0048C240.472 38.14 240.234 38.3348 240.04 38.5891C239.85 38.838 239.707 39.1437 239.61 39.5062C239.518 39.8633 239.472 40.2664 239.472 40.7154C239.472 41.1807 239.523 41.5946 239.626 41.9571C239.729 42.3196 239.875 42.6253 240.064 42.8742C240.259 43.1231 240.491 43.3124 240.762 43.4423C241.038 43.5721 241.346 43.6371 241.687 43.6371C242.023 43.6371 242.296 43.5965 242.507 43.5153C242.718 43.4342 242.894 43.3449 243.034 43.2475C243.175 43.1501 243.294 43.0609 243.391 42.9797C243.494 42.8985 243.602 42.858 243.716 42.858C243.857 42.858 243.965 42.9121 244.041 43.0203L244.536 43.6614C244.336 43.9049 244.114 44.1105 243.87 44.2782C243.627 44.4459 243.37 44.5839 243.099 44.6921C242.829 44.7949 242.547 44.868 242.255 44.9112C241.963 44.9599 241.668 44.9843 241.371 44.9843C240.857 44.9843 240.375 44.8896 239.926 44.7002C239.482 44.5055 239.093 44.2268 238.757 43.8643C238.427 43.4964 238.165 43.05 237.97 42.5252C237.781 41.995 237.686 41.3917 237.686 40.7154C237.686 40.104 237.773 39.5386 237.946 39.0192C238.119 38.4944 238.371 38.0427 238.701 37.6639C239.036 37.2852 239.45 36.9903 239.942 36.7793C240.435 36.5629 241.003 36.4547 241.647 36.4547C242.247 36.4547 242.775 36.5521 243.229 36.7469C243.689 36.9416 244.097 37.2176 244.455 37.5747L243.992 38.2077Z" fill="white"/>
<path d="M247.684 37.5665C248.025 37.2311 248.398 36.9633 248.804 36.7631C249.21 36.5575 249.683 36.4547 250.224 36.4547C250.679 36.4547 251.076 36.5304 251.417 36.6819C251.764 36.8334 252.053 37.0471 252.286 37.3231C252.524 37.599 252.702 37.9317 252.821 38.3213C252.94 38.7054 253 39.1302 253 39.5955V44.8625H251.263V39.5955C251.263 39.0382 251.133 38.6053 250.874 38.2969C250.619 37.9886 250.23 37.8344 249.705 37.8344C249.315 37.8344 248.953 37.9236 248.617 38.1022C248.287 38.2807 247.976 38.5242 247.684 38.8326V44.8625H245.939V32.8513H247.684V37.5665Z" fill="white"/>
<path d="M0 16.8517H61.7467V19.4245H0V16.8517Z" fill="white"/>
<path d="M0 20.0677H61.7467V22.6405H0V20.0677Z" fill="white"/>
<path d="M0 23.2837H61.7467V25.8564H0V23.2837Z" fill="white"/>
<path d="M0 26.4996H61.7467V29.0724H0V26.4996Z" fill="white"/>
<path d="M0 29.7156H61.7467V32.2884H0V29.7156Z" fill="white"/>
<path d="M0 32.9316H61.7467V35.5044H0V32.9316Z" fill="white"/>
<path d="M0 36.1476H61.7467V38.7203H0V36.1476Z" fill="white"/>
<path d="M0 39.3635H61.7467V41.9363H0V39.3635Z" fill="white"/>
<path d="M0 42.5795H61.7467V45.1523H0V42.5795Z" fill="white"/>
<path d="M56.0866 0H57.5016V4.24509H61.7467V5.66012H57.5016V13.6357H61.7467V16.2085H0V13.6357H56.0866V5.66012H51.7129V4.24509H56.0866V0Z" fill="white"/>
</svg>
