<svg width="56" height="41" viewBox="0 0 56 41" fill="none" xmlns="http://www.w3.org/2000/svg">
<path d="M0 15.1865H55.6453V17.5051H0V15.1865Z" fill="black"/>
<path d="M0 18.0847H55.6453V20.4033H0V18.0847Z" fill="black"/>
<path d="M0 20.9829H55.6453V23.3015H0V20.9829Z" fill="black"/>
<path d="M0 23.8811H55.6453V26.1996H0V23.8811Z" fill="black"/>
<path d="M0 26.7793H55.6453V29.0978H0V26.7793Z" fill="black"/>
<path d="M0 29.6775H55.6453V31.996H0V29.6775Z" fill="black"/>
<path d="M0 32.5757H55.6453V34.8942H0V32.5757Z" fill="black"/>
<path d="M0 35.4739H55.6453V37.7924H0V35.4739Z" fill="black"/>
<path d="M0 38.372H55.6453V40.6906H0V38.372Z" fill="black"/>
<path d="M50.5445 0H51.8197V3.82561H55.6453V5.10082H51.8197V12.2883H55.6453V14.6069H0V12.2883H50.5445V5.10082H46.6029V3.82561H50.5445V0Z" fill="black"/>
</svg>
