<svg width="300" height="65" viewBox="0 0 343 65" fill="none" xmlns="http://www.w3.org/2000/svg">
<path d="M114.01 18.7693V39.7841H111.003V25.3802C111.003 25.1467 111.008 24.8937 111.018 24.6213C111.038 24.3392 111.062 24.057 111.091 23.7749L104.334 36.2524C104.072 36.7681 103.668 37.0259 103.123 37.0259H102.641C102.087 37.0259 101.683 36.7681 101.43 36.2524L94.5711 23.7457C94.6003 24.0279 94.6197 24.31 94.6294 24.5921C94.6489 24.8743 94.6586 25.137 94.6586 25.3802V39.7841H91.6523V18.7693H94.2062C94.5078 18.7693 94.7413 18.7985 94.9067 18.8569C95.0721 18.9055 95.2229 19.066 95.3591 19.3384L102.101 31.5533C102.247 31.8354 102.384 32.1273 102.51 32.4289C102.646 32.7208 102.768 33.0224 102.875 33.3337C102.992 33.0224 103.113 32.7159 103.24 32.4143C103.376 32.103 103.517 31.8063 103.663 31.5241L110.303 19.3384C110.439 19.066 110.59 18.9055 110.755 18.8569C110.921 18.7985 111.154 18.7693 111.456 18.7693H114.01Z" fill="#3E4852"/>
<path d="M124.383 24.6651C125.482 24.6651 126.475 24.8451 127.36 25.2051C128.255 25.5651 129.014 26.0758 129.637 26.7374C130.269 27.399 130.755 28.2016 131.096 29.1454C131.436 30.0891 131.607 31.1495 131.607 32.3268C131.607 33.504 131.436 34.5644 131.096 35.5082C130.755 36.4519 130.269 37.2594 129.637 37.9307C129.014 38.5923 128.255 39.1031 127.36 39.463C126.475 39.823 125.482 40.003 124.383 40.003C123.274 40.003 122.272 39.823 121.377 39.463C120.491 39.1031 119.732 38.5923 119.1 37.9307C118.468 37.2594 117.981 36.4519 117.641 35.5082C117.3 34.5644 117.13 33.504 117.13 32.3268C117.13 31.1495 117.3 30.0891 117.641 29.1454C117.981 28.2016 118.468 27.399 119.1 26.7374C119.732 26.0758 120.491 25.5651 121.377 25.2051C122.272 24.8451 123.274 24.6651 124.383 24.6651ZM124.383 37.5513C125.725 37.5513 126.723 37.1037 127.375 36.2087C128.036 35.3039 128.367 34.0148 128.367 32.3414C128.367 30.668 128.036 29.3788 127.375 28.474C126.723 27.5595 125.725 27.1022 124.383 27.1022C123.021 27.1022 122.009 27.5595 121.347 28.474C120.686 29.3788 120.355 30.668 120.355 32.3414C120.355 34.0148 120.686 35.3039 121.347 36.2087C122.009 37.1037 123.021 37.5513 124.383 37.5513Z" fill="#3E4852"/>
<path d="M147.172 24.8986V39.7841H145.275C144.856 39.7841 144.589 39.5847 144.472 39.1858L144.239 37.7994C143.927 38.1302 143.596 38.4318 143.246 38.7042C142.906 38.9766 142.541 39.2101 142.152 39.4047C141.763 39.5992 141.344 39.75 140.897 39.8571C140.459 39.9641 139.987 40.0176 139.481 40.0176C138.664 40.0176 137.944 39.8814 137.321 39.609C136.699 39.3366 136.173 38.9523 135.745 38.4561C135.327 37.9599 135.011 37.3664 134.797 36.6757C134.582 35.9752 134.475 35.2066 134.475 34.3699V24.8986H137.613V34.3699C137.613 35.372 137.842 36.1503 138.299 36.7048C138.766 37.2594 139.471 37.5367 140.415 37.5367C141.106 37.5367 141.748 37.381 142.341 37.0697C142.945 36.7486 143.509 36.3108 144.034 35.7563V24.8986H147.172Z" fill="#3E4852"/>
<path d="M153.916 26.8687C154.237 26.538 154.567 26.2412 154.908 25.9785C155.258 25.7061 155.628 25.4726 156.017 25.278C156.406 25.0835 156.82 24.9327 157.257 24.8256C157.695 24.7186 158.172 24.6651 158.688 24.6651C159.505 24.6651 160.22 24.8013 160.833 25.0737C161.456 25.3461 161.976 25.7304 162.394 26.2266C162.822 26.7228 163.144 27.3211 163.358 28.0216C163.572 28.7124 163.679 29.4761 163.679 30.3128V39.7841H160.556V30.3128C160.556 29.3107 160.322 28.5324 159.855 27.9779C159.398 27.4233 158.697 27.146 157.754 27.146C157.053 27.146 156.401 27.3066 155.798 27.6276C155.205 27.9487 154.645 28.3865 154.12 28.941V39.7841H150.982V24.8986H152.879C153.307 24.8986 153.58 25.0981 153.697 25.4969L153.916 26.8687Z" fill="#3E4852"/>
<path d="M171.916 40.0176C170.68 40.0176 169.727 39.6722 169.055 38.9815C168.394 38.281 168.063 37.2983 168.063 36.0335V27.3649H166.428C166.253 27.3649 166.102 27.3114 165.976 27.2044C165.85 27.0877 165.786 26.9174 165.786 26.6936V25.424L168.194 25.0737L168.88 20.7686C168.929 20.6032 169.011 20.4719 169.128 20.3746C169.245 20.2676 169.401 20.2141 169.595 20.2141H171.201V25.1029H175.331V27.3649H171.201V35.8146C171.201 36.3497 171.332 36.7584 171.595 37.0405C171.857 37.3226 172.207 37.4637 172.645 37.4637C172.889 37.4637 173.098 37.4345 173.273 37.3762C173.448 37.308 173.599 37.2399 173.725 37.1718C173.852 37.094 173.959 37.0259 174.046 36.9675C174.144 36.8994 174.236 36.8654 174.324 36.8654C174.499 36.8654 174.64 36.9627 174.747 37.1572L175.681 38.6896C175.194 39.1177 174.62 39.4484 173.959 39.6819C173.297 39.9057 172.616 40.0176 171.916 40.0176Z" fill="#3E4852"/>
<path d="M200.249 35.0995C200.434 35.0995 200.595 35.1725 200.731 35.3185L202.088 36.7924C201.232 37.8237 200.181 38.6215 198.936 39.1858C197.691 39.7403 196.202 40.0176 194.47 40.0176C192.933 40.0176 191.542 39.7549 190.296 39.2295C189.061 38.6944 188.005 37.955 187.13 37.0113C186.254 36.0579 185.578 34.9244 185.101 33.611C184.634 32.2976 184.401 30.8528 184.401 29.2767C184.401 27.7006 184.649 26.2558 185.145 24.9424C185.651 23.6192 186.356 22.4858 187.261 21.5421C188.176 20.5886 189.265 19.8492 190.53 19.3238C191.804 18.7985 193.205 18.5358 194.733 18.5358C196.251 18.5358 197.588 18.7839 198.746 19.2801C199.914 19.7665 200.925 20.4184 201.782 21.2356L200.658 22.8263C200.58 22.9333 200.488 23.0258 200.381 23.1036C200.274 23.1814 200.128 23.2203 199.943 23.2203C199.748 23.2203 199.525 23.1328 199.272 22.9577C199.028 22.7728 198.712 22.5734 198.323 22.3593C197.944 22.1356 197.462 21.9361 196.878 21.761C196.304 21.5761 195.584 21.4837 194.718 21.4837C193.716 21.4837 192.797 21.6588 191.96 22.0091C191.123 22.3593 190.404 22.8701 189.8 23.5414C189.197 24.2127 188.725 25.03 188.385 25.9931C188.054 26.9563 187.889 28.0508 187.889 29.2767C187.889 30.5123 188.064 31.6165 188.414 32.5894C188.764 33.5526 189.246 34.3699 189.859 35.0412C190.472 35.7028 191.192 36.2087 192.019 36.5589C192.846 36.9092 193.736 37.0843 194.689 37.0843C195.273 37.0843 195.793 37.0551 196.251 36.9967C196.718 36.9286 197.146 36.8265 197.535 36.6903C197.924 36.5443 198.289 36.3643 198.629 36.1503C198.98 35.9362 199.325 35.6736 199.666 35.3622C199.86 35.1871 200.055 35.0995 200.249 35.0995Z" fill="#3E4852"/>
<path d="M212.408 33.2753C211.289 33.3143 210.345 33.4067 209.576 33.5526C208.808 33.6888 208.185 33.8688 207.708 34.0926C207.232 34.3066 206.886 34.5644 206.672 34.866C206.468 35.1677 206.366 35.4984 206.366 35.8584C206.366 36.2087 206.419 36.5103 206.526 36.7632C206.643 37.0064 206.799 37.2108 206.993 37.3762C207.198 37.5318 207.431 37.6486 207.694 37.7264C207.966 37.7945 208.263 37.8286 208.584 37.8286C209.401 37.8286 210.102 37.6778 210.686 37.3762C211.279 37.0648 211.853 36.6173 212.408 36.0335V33.2753ZM204.089 26.9709C205.772 25.4045 207.777 24.6213 210.102 24.6213C210.958 24.6213 211.717 24.7624 212.378 25.0445C213.05 25.317 213.609 25.7061 214.057 26.212C214.514 26.7179 214.859 27.3211 215.093 28.0216C215.336 28.7124 215.458 29.481 215.458 30.3274V39.7841H214.057C213.755 39.7841 213.526 39.7403 213.371 39.6528C213.215 39.5555 213.084 39.3657 212.977 39.0836L212.67 37.8723C212.291 38.2129 211.916 38.5193 211.547 38.7917C211.177 39.0544 210.793 39.2782 210.394 39.463C210.005 39.6479 209.581 39.7841 209.124 39.8717C208.677 39.969 208.18 40.0176 207.636 40.0176C207.032 40.0176 206.468 39.9349 205.943 39.7695C205.427 39.6041 204.979 39.356 204.6 39.0252C204.221 38.6847 203.919 38.2664 203.695 37.7702C203.481 37.274 203.374 36.6903 203.374 36.0189C203.374 35.4449 203.525 34.8855 203.827 34.3407C204.138 33.7959 204.644 33.3094 205.344 32.8813C206.055 32.4435 206.984 32.0835 208.132 31.8014C209.289 31.5192 210.715 31.3587 212.408 31.3198V30.3274C212.408 29.2572 212.179 28.4595 211.722 27.9341C211.264 27.4087 210.593 27.146 209.708 27.146C209.105 27.146 208.599 27.2239 208.19 27.3795C207.781 27.5255 207.426 27.686 207.125 27.8611C206.823 28.0362 206.556 28.2016 206.322 28.3573C206.089 28.5032 205.841 28.5762 205.578 28.5762C205.364 28.5762 205.179 28.5227 205.023 28.4157C204.877 28.2989 204.756 28.1579 204.658 27.9925L204.089 26.9709Z" fill="#3E4852"/>
<path d="M222.096 27.6568C222.563 26.7131 223.127 25.9737 223.789 25.4386C224.45 24.8937 225.243 24.6213 226.167 24.6213C226.488 24.6213 226.79 24.6602 227.072 24.7381C227.354 24.8062 227.607 24.9132 227.831 25.0591L227.612 27.4233C227.573 27.5887 227.51 27.7054 227.422 27.7736C227.345 27.8319 227.238 27.8611 227.101 27.8611C226.955 27.8611 226.746 27.8368 226.474 27.7881C226.201 27.7298 225.914 27.7006 225.613 27.7006C225.175 27.7006 224.786 27.7638 224.445 27.8903C224.115 28.0168 223.813 28.2016 223.541 28.4449C223.278 28.6881 223.044 28.9848 222.84 29.3351C222.636 29.6853 222.446 30.0842 222.271 30.5317V39.7841H219.133V24.8986H220.957C221.288 24.8986 221.517 24.9618 221.643 25.0883C221.77 25.2051 221.857 25.4143 221.906 25.7159L222.096 27.6568Z" fill="#3E4852"/>
<path d="M229.907 39.7841V24.8986H231.805C232.233 24.8986 232.505 25.0981 232.622 25.4969L232.826 26.7958C233.099 26.4844 233.381 26.2023 233.673 25.9493C233.964 25.6867 234.276 25.4629 234.607 25.278C234.947 25.0835 235.307 24.9327 235.686 24.8256C236.076 24.7186 236.494 24.6651 236.942 24.6651C237.418 24.6651 237.856 24.7332 238.255 24.8694C238.654 25.0056 239.004 25.2002 239.306 25.4532C239.617 25.7061 239.885 26.0126 240.108 26.3726C240.332 26.7325 240.517 27.1363 240.663 27.5838C240.887 27.0682 241.169 26.6255 241.509 26.2558C241.85 25.8861 242.229 25.5845 242.648 25.351C243.066 25.1175 243.509 24.9473 243.976 24.8402C244.452 24.7235 244.934 24.6651 245.42 24.6651C246.218 24.6651 246.928 24.7916 247.551 25.0445C248.184 25.2975 248.714 25.6672 249.142 26.1537C249.58 26.6304 249.91 27.219 250.134 27.9195C250.358 28.62 250.47 29.4178 250.47 30.3128V39.7841H247.332V30.3128C247.332 29.2621 247.104 28.474 246.646 27.9487C246.199 27.4136 245.532 27.146 244.647 27.146C244.248 27.146 243.874 27.2141 243.523 27.3503C243.173 27.4865 242.867 27.686 242.604 27.9487C242.341 28.2114 242.132 28.5421 241.976 28.941C241.83 29.3302 241.757 29.7875 241.757 30.3128V39.7841H238.62V30.3128C238.62 29.2232 238.401 28.4254 237.963 27.9195C237.525 27.4038 236.883 27.146 236.037 27.146C235.453 27.146 234.913 27.2968 234.417 27.5984C233.921 27.8903 233.463 28.2941 233.045 28.8097V39.7841H229.907Z" fill="#3E4852"/>
<path d="M263.898 30.6631C263.898 30.1377 263.82 29.6513 263.665 29.2037C263.519 28.7465 263.3 28.3524 263.008 28.0216C262.716 27.6811 262.351 27.4184 261.914 27.2336C261.485 27.039 260.989 26.9417 260.425 26.9417C259.287 26.9417 258.392 27.2676 257.74 27.9195C257.088 28.5713 256.674 29.4859 256.499 30.6631H263.898ZM256.412 32.5894C256.451 33.4359 256.582 34.1704 256.806 34.7931C257.03 35.406 257.326 35.9168 257.696 36.3254C258.075 36.734 258.523 37.0405 259.039 37.2448C259.564 37.4394 260.148 37.5367 260.79 37.5367C261.403 37.5367 261.933 37.4686 262.381 37.3324C262.828 37.1864 263.217 37.0308 263.548 36.8654C263.879 36.6903 264.161 36.5346 264.394 36.3984C264.628 36.2524 264.842 36.1795 265.037 36.1795C265.289 36.1795 265.484 36.2768 265.62 36.4713L266.51 37.6242C266.141 38.0621 265.722 38.4318 265.255 38.7334C264.788 39.035 264.292 39.2831 263.767 39.4776C263.242 39.6625 262.702 39.7938 262.147 39.8717C261.592 39.9592 261.052 40.003 260.527 40.003C259.496 40.003 258.538 39.8327 257.652 39.4922C256.777 39.142 256.013 38.6312 255.361 37.9599C254.719 37.2886 254.213 36.4568 253.843 35.4644C253.483 34.472 253.303 33.3289 253.303 32.0349C253.303 31.0036 253.464 30.0404 253.785 29.1454C254.116 28.2503 254.583 27.472 255.186 26.8104C255.799 26.1488 256.538 25.6283 257.404 25.2489C258.28 24.8597 259.267 24.6651 260.367 24.6651C261.281 24.6651 262.128 24.8159 262.906 25.1175C263.684 25.4094 264.356 25.8423 264.92 26.4163C265.484 26.9904 265.922 27.6957 266.233 28.5324C266.554 29.3594 266.715 30.3031 266.715 31.3636C266.715 31.85 266.661 32.176 266.554 32.3414C266.447 32.5067 266.253 32.5894 265.971 32.5894H256.412Z" fill="#3E4852"/>
<path d="M272.837 18.1855V39.7841H269.699V18.1855H272.837Z" fill="#3E4852"/>
<path d="M96.8435 59.1381C97.423 59.1381 97.9108 59.0721 98.3069 58.9401C98.7103 58.8007 99.0367 58.6137 99.2861 58.379C99.5429 58.1442 99.7262 57.8692 99.8363 57.5538C99.9536 57.231 100.012 56.8863 100.012 56.5195C100.012 55.7713 99.7556 55.1845 99.2421 54.7591C98.736 54.3263 97.9328 54.1099 96.8325 54.1099H93.6528V59.1381H96.8435ZM93.6528 47.3432V52.2945H96.2274C97.3277 52.2945 98.1492 52.0817 98.692 51.6563C99.2348 51.2309 99.5062 50.6184 99.5062 49.8189C99.5062 48.946 99.2495 48.3152 98.736 47.9264C98.2299 47.5376 97.434 47.3432 96.3484 47.3432H93.6528ZM96.3484 45.3298C97.3607 45.3298 98.2262 45.4288 98.9451 45.6268C99.6639 45.8175 100.254 46.0926 100.716 46.452C101.179 46.8115 101.516 47.2516 101.729 47.7724C101.949 48.2858 102.059 48.8653 102.059 49.5108C102.059 49.8849 102 50.248 101.883 50.6C101.773 50.9448 101.597 51.2712 101.355 51.5793C101.12 51.88 100.823 52.1514 100.463 52.3935C100.104 52.6355 99.6786 52.8373 99.1871 52.9986C101.432 53.4754 102.554 54.6674 102.554 56.5745C102.554 57.2493 102.426 57.8692 102.169 58.434C101.919 58.9914 101.553 59.4756 101.069 59.8863C100.592 60.2898 100.001 60.6052 99.2971 60.8326C98.593 61.0599 97.7898 61.1736 96.8876 61.1736H91.0781V45.3298H96.3484Z" fill="#3E4852"/>
<path d="M107.264 49.9509V61.1736H104.899V49.9509H107.264ZM107.66 46.5621C107.66 46.7748 107.616 46.9765 107.528 47.1672C107.448 47.3579 107.334 47.5266 107.187 47.6733C107.041 47.8127 106.868 47.9264 106.67 48.0144C106.479 48.0951 106.274 48.1354 106.054 48.1354C105.841 48.1354 105.64 48.0951 105.449 48.0144C105.265 47.9264 105.104 47.8127 104.965 47.6733C104.825 47.5266 104.712 47.3579 104.624 47.1672C104.543 46.9765 104.503 46.7748 104.503 46.5621C104.503 46.342 104.543 46.1366 104.624 45.9459C104.712 45.7552 104.825 45.5902 104.965 45.4508C105.104 45.3041 105.265 45.1904 105.449 45.1097C105.64 45.0217 105.841 44.9777 106.054 44.9777C106.274 44.9777 106.479 45.0217 106.67 45.1097C106.868 45.1904 107.041 45.3041 107.187 45.4508C107.334 45.5902 107.448 45.7552 107.528 45.9459C107.616 46.1366 107.66 46.342 107.66 46.5621Z" fill="#3E4852"/>
<path d="M112.602 58.357C112.932 58.7824 113.292 59.0831 113.68 59.2592C114.077 59.4279 114.506 59.5122 114.968 59.5122C115.899 59.5122 116.625 59.1748 117.146 58.5C117.667 57.8252 117.927 56.7799 117.927 55.3642C117.927 54.0732 117.7 53.1307 117.245 52.5365C116.798 51.9424 116.156 51.6453 115.32 51.6453C114.74 51.6453 114.234 51.7773 113.801 52.0414C113.376 52.2981 112.976 52.6686 112.602 53.1527V58.357ZM112.602 51.4363C113.064 50.9301 113.581 50.5267 114.154 50.226C114.726 49.9252 115.379 49.7748 116.112 49.7748C116.765 49.7748 117.352 49.9032 117.872 50.1599C118.401 50.4093 118.848 50.7724 119.215 51.2492C119.582 51.726 119.864 52.3055 120.062 52.9876C120.26 53.6625 120.359 54.4253 120.359 55.2762C120.359 56.1858 120.245 57.0146 120.018 57.7628C119.798 58.5037 119.479 59.1418 119.061 59.6773C118.643 60.2054 118.137 60.6162 117.542 60.9096C116.948 61.1956 116.284 61.3387 115.551 61.3387C115.191 61.3387 114.865 61.302 114.572 61.2287C114.278 61.1626 114.007 61.0636 113.757 60.9316C113.508 60.7996 113.277 60.6418 113.064 60.4585C112.859 60.2751 112.661 60.066 112.47 59.8313L112.371 60.7005C112.334 60.8692 112.268 60.9903 112.173 61.0636C112.078 61.137 111.946 61.1736 111.777 61.1736H110.237V44.8896H112.602V51.4363Z" fill="#3E4852"/>
<path d="M125.067 44.8896V61.1736H122.702V44.8896H125.067Z" fill="#3E4852"/>
<path d="M135.348 54.297C135.348 53.9009 135.289 53.5341 135.172 53.1967C135.062 52.8519 134.897 52.5549 134.677 52.3055C134.457 52.0487 134.182 51.8507 133.851 51.7113C133.529 51.5646 133.155 51.4913 132.729 51.4913C131.871 51.4913 131.196 51.737 130.705 52.2284C130.213 52.7199 129.901 53.4094 129.769 54.297H135.348ZM129.703 55.7493C129.733 56.3875 129.832 56.9413 130.001 57.4107C130.169 57.8728 130.393 58.2579 130.672 58.566C130.958 58.8741 131.295 59.1051 131.684 59.2592C132.08 59.4059 132.52 59.4792 133.004 59.4792C133.466 59.4792 133.866 59.4279 134.204 59.3252C134.541 59.2152 134.834 59.0978 135.084 58.9731C135.333 58.8411 135.546 58.7237 135.722 58.621C135.898 58.511 136.059 58.456 136.206 58.456C136.397 58.456 136.543 58.5293 136.646 58.676L137.317 59.5452C137.039 59.8753 136.723 60.1541 136.371 60.3814C136.019 60.6088 135.645 60.7959 135.249 60.9426C134.853 61.082 134.446 61.181 134.028 61.2397C133.609 61.3057 133.202 61.3387 132.806 61.3387C132.029 61.3387 131.306 61.2103 130.639 60.9536C129.979 60.6895 129.403 60.3044 128.911 59.7983C128.427 59.2922 128.046 58.665 127.767 57.9168C127.496 57.1687 127.36 56.3068 127.36 55.3312C127.36 54.5537 127.481 53.8275 127.723 53.1527C127.972 52.4778 128.324 51.891 128.779 51.3922C129.241 50.8935 129.799 50.501 130.452 50.215C131.112 49.9215 131.856 49.7748 132.685 49.7748C133.375 49.7748 134.013 49.8885 134.6 50.1159C135.186 50.336 135.693 50.6624 136.118 51.0952C136.543 51.5279 136.874 52.0597 137.108 52.6906C137.35 53.314 137.471 54.0256 137.471 54.8251C137.471 55.1918 137.431 55.4376 137.35 55.5623C137.27 55.687 137.123 55.7493 136.91 55.7493H129.703Z" fill="#3E4852"/>
<path d="M139.545 53.5488H145.124V55.5513H139.545V53.5488Z" fill="#3E4852"/>
<path d="M153.234 53.4057C153.806 53.4057 154.309 53.3324 154.742 53.1857C155.182 53.039 155.545 52.8336 155.831 52.5695C156.124 52.2981 156.344 51.9717 156.491 51.5903C156.638 51.2089 156.711 50.7834 156.711 50.314C156.711 49.8519 156.638 49.4374 156.491 49.0707C156.352 48.7039 156.139 48.3922 155.853 48.1354C155.567 47.8787 155.204 47.6843 154.764 47.5523C154.331 47.4129 153.821 47.3432 153.234 47.3432H150.88V53.4057H153.234ZM153.234 45.3298C154.269 45.3298 155.163 45.4508 155.919 45.6928C156.682 45.9349 157.309 46.276 157.8 46.7161C158.299 47.1489 158.67 47.6733 158.912 48.2895C159.154 48.8983 159.275 49.5731 159.275 50.314C159.275 51.0695 159.146 51.7627 158.89 52.3935C158.633 53.017 158.251 53.5561 157.745 54.0109C157.239 54.4583 156.608 54.8104 155.853 55.0671C155.105 55.3165 154.232 55.4412 153.234 55.4412H150.88V61.1736H148.305V45.3298H153.234Z" fill="#3E4852"/>
<path d="M163.336 52.0304C163.688 51.3189 164.114 50.7614 164.612 50.358C165.111 49.9472 165.709 49.7418 166.406 49.7418C166.648 49.7418 166.875 49.7712 167.088 49.8299C167.301 49.8812 167.491 49.9619 167.66 50.0719L167.495 51.8544C167.466 51.9791 167.418 52.0671 167.352 52.1184C167.293 52.1624 167.213 52.1844 167.11 52.1844C167 52.1844 166.842 52.1661 166.637 52.1294C166.432 52.0854 166.215 52.0634 165.988 52.0634C165.658 52.0634 165.364 52.1111 165.108 52.2064C164.858 52.3018 164.631 52.4412 164.425 52.6245C164.227 52.8079 164.051 53.0316 163.897 53.2957C163.743 53.5598 163.6 53.8605 163.468 54.1979V61.1736H161.103V49.9509H162.478C162.727 49.9509 162.9 49.9986 162.995 50.0939C163.09 50.1819 163.156 50.3397 163.193 50.567L163.336 52.0304Z" fill="#3E4852"/>
<path d="M176.2 54.297C176.2 53.9009 176.141 53.5341 176.024 53.1967C175.914 52.8519 175.749 52.5549 175.528 52.3055C175.308 52.0487 175.033 51.8507 174.703 51.7113C174.381 51.5646 174.006 51.4913 173.581 51.4913C172.723 51.4913 172.048 51.737 171.557 52.2284C171.065 52.7199 170.753 53.4094 170.621 54.297H176.2ZM170.555 55.7493C170.585 56.3875 170.684 56.9413 170.852 57.4107C171.021 57.8728 171.245 58.2579 171.523 58.566C171.81 58.8741 172.147 59.1051 172.536 59.2592C172.932 59.4059 173.372 59.4792 173.856 59.4792C174.318 59.4792 174.718 59.4279 175.055 59.3252C175.393 59.2152 175.686 59.0978 175.936 58.9731C176.185 58.8411 176.398 58.7237 176.574 58.621C176.75 58.511 176.911 58.456 177.058 58.456C177.249 58.456 177.395 58.5293 177.498 58.676L178.169 59.5452C177.89 59.8753 177.575 60.1541 177.223 60.3814C176.871 60.6088 176.497 60.7959 176.101 60.9426C175.705 61.082 175.297 61.181 174.879 61.2397C174.461 61.3057 174.054 61.3387 173.658 61.3387C172.88 61.3387 172.158 61.2103 171.49 60.9536C170.83 60.6895 170.255 60.3044 169.763 59.7983C169.279 59.2922 168.898 58.665 168.619 57.9168C168.347 57.1687 168.212 56.3068 168.212 55.3312C168.212 54.5537 168.333 53.8275 168.575 53.1527C168.824 52.4778 169.176 51.891 169.631 51.3922C170.093 50.8935 170.651 50.501 171.303 50.215C171.964 49.9215 172.708 49.7748 173.537 49.7748C174.226 49.7748 174.865 49.8885 175.451 50.1159C176.038 50.336 176.544 50.6624 176.97 51.0952C177.395 51.5279 177.725 52.0597 177.96 52.6906C178.202 53.314 178.323 54.0256 178.323 54.8251C178.323 55.1918 178.283 55.4376 178.202 55.5623C178.121 55.687 177.975 55.7493 177.762 55.7493H170.555Z" fill="#3E4852"/>
<path d="M187.23 51.9864C187.171 52.0891 187.105 52.1624 187.032 52.2064C186.958 52.2505 186.867 52.2725 186.757 52.2725C186.632 52.2725 186.496 52.2358 186.35 52.1624C186.203 52.0817 186.031 51.9937 185.832 51.8984C185.634 51.803 185.4 51.7187 185.128 51.6453C184.864 51.5646 184.553 51.5243 184.193 51.5243C183.9 51.5243 183.632 51.561 183.39 51.6343C183.155 51.7003 182.953 51.7993 182.785 51.9314C182.623 52.0561 182.499 52.2064 182.411 52.3825C182.323 52.5512 182.279 52.7346 182.279 52.9326C182.279 53.1967 182.359 53.4167 182.521 53.5928C182.682 53.7688 182.895 53.9229 183.159 54.0549C183.423 54.1796 183.724 54.2933 184.061 54.396C184.398 54.4987 184.743 54.6087 185.095 54.7261C185.447 54.8434 185.792 54.9791 186.13 55.1332C186.467 55.2872 186.768 55.4779 187.032 55.7053C187.296 55.9254 187.509 56.1968 187.67 56.5195C187.831 56.8349 187.912 57.22 187.912 57.6748C187.912 58.2029 187.817 58.6907 187.626 59.1381C187.435 59.5856 187.156 59.9743 186.79 60.3044C186.423 60.6345 185.965 60.8912 185.414 61.0746C184.872 61.258 184.248 61.3497 183.544 61.3497C183.155 61.3497 182.777 61.313 182.411 61.2397C182.051 61.1736 181.706 61.082 181.376 60.9646C181.054 60.8399 180.749 60.6932 180.463 60.5245C180.184 60.3558 179.935 60.1724 179.715 59.9743L180.265 59.0721C180.331 58.9621 180.412 58.8777 180.507 58.8191C180.61 58.753 180.735 58.72 180.881 58.72C181.035 58.72 181.186 58.7714 181.332 58.8741C181.486 58.9694 181.662 59.0758 181.861 59.1932C182.066 59.3105 182.312 59.4205 182.598 59.5232C182.884 59.6186 183.24 59.6663 183.665 59.6663C184.017 59.6663 184.321 59.6259 184.578 59.5452C184.835 59.4572 185.048 59.3399 185.216 59.1932C185.385 59.0465 185.51 58.8814 185.59 58.698C185.671 58.5073 185.711 58.3056 185.711 58.0929C185.711 57.8068 185.631 57.5721 185.469 57.3887C185.308 57.2053 185.092 57.0476 184.82 56.9156C184.556 56.7836 184.252 56.6662 183.907 56.5635C183.57 56.4608 183.225 56.3508 182.873 56.2334C182.521 56.1161 182.172 55.9804 181.828 55.8263C181.49 55.6723 181.186 55.4779 180.914 55.2432C180.65 55.0011 180.438 54.7114 180.276 54.374C180.115 54.0292 180.034 53.6111 180.034 53.1197C180.034 52.6722 180.122 52.2468 180.298 51.8434C180.482 51.4399 180.746 51.0842 181.09 50.7761C181.442 50.468 181.872 50.226 182.378 50.0499C182.891 49.8665 183.482 49.7748 184.149 49.7748C184.905 49.7748 185.59 49.8959 186.207 50.1379C186.823 50.38 187.34 50.7101 187.758 51.1282L187.23 51.9864Z" fill="#3E4852"/>
<path d="M192.501 58.357C192.831 58.7824 193.19 59.0831 193.579 59.2592C193.975 59.4279 194.404 59.5122 194.866 59.5122C195.798 59.5122 196.524 59.1748 197.045 58.5C197.566 57.8252 197.826 56.7799 197.826 55.3642C197.826 54.0732 197.599 53.1307 197.144 52.5365C196.696 51.9424 196.055 51.6453 195.218 51.6453C194.639 51.6453 194.133 51.7773 193.7 52.0414C193.275 52.2981 192.875 52.6686 192.501 53.1527V58.357ZM192.501 51.4363C192.963 50.9301 193.48 50.5267 194.052 50.226C194.624 49.9252 195.277 49.7748 196.011 49.7748C196.663 49.7748 197.25 49.9032 197.771 50.1599C198.299 50.4093 198.747 50.7724 199.113 51.2492C199.48 51.726 199.762 52.3055 199.96 52.9876C200.159 53.6625 200.258 54.4253 200.258 55.2762C200.258 56.1858 200.144 57.0146 199.916 57.7628C199.696 58.5037 199.377 59.1418 198.959 59.6773C198.541 60.2054 198.035 60.6162 197.441 60.9096C196.847 61.1956 196.183 61.3387 195.449 61.3387C195.09 61.3387 194.764 61.302 194.47 61.2287C194.177 61.1626 193.905 61.0636 193.656 60.9316C193.407 60.7996 193.175 60.6418 192.963 60.4585C192.757 60.2751 192.559 60.066 192.369 59.8313L192.27 60.7005C192.233 60.8692 192.167 60.9903 192.072 61.0636C191.976 61.137 191.844 61.1736 191.675 61.1736H190.135V44.8896H192.501V51.4363Z" fill="#3E4852"/>
<path d="M212.213 49.9509L206.029 64.3644C205.948 64.5331 205.849 64.6652 205.732 64.7605C205.622 64.8559 205.45 64.9036 205.215 64.9036H203.466L205.534 60.4145L200.957 49.9509H203.014C203.212 49.9509 203.363 49.9986 203.466 50.0939C203.576 50.1819 203.656 50.2883 203.708 50.413L206.381 56.7836C206.447 56.9669 206.506 57.1503 206.557 57.3337C206.616 57.5097 206.671 57.6931 206.722 57.8838C206.781 57.6931 206.84 57.5061 206.898 57.3227C206.957 57.1393 207.023 56.9559 207.096 56.7726L209.66 50.413C209.711 50.281 209.796 50.1709 209.913 50.0829C210.038 49.9949 210.174 49.9509 210.32 49.9509H212.213Z" fill="#3E4852"/>
<path d="M217.35 61.3497C216.419 61.3497 215.7 61.0893 215.194 60.5685C214.695 60.0404 214.445 59.2995 214.445 58.3459V51.8103H213.213C213.081 51.8103 212.967 51.77 212.872 51.6893C212.777 51.6013 212.729 51.4729 212.729 51.3042V50.347L214.544 50.0829L215.062 46.8371C215.098 46.7124 215.161 46.6134 215.249 46.5401C215.337 46.4594 215.454 46.419 215.601 46.419H216.811V50.1049H219.925V51.8103H216.811V58.1809C216.811 58.5843 216.91 58.8924 217.108 59.1051C217.306 59.3179 217.57 59.4242 217.9 59.4242C218.084 59.4242 218.241 59.4022 218.373 59.3582C218.505 59.3069 218.619 59.2555 218.714 59.2042C218.81 59.1455 218.89 59.0941 218.956 59.0501C219.03 58.9988 219.1 58.9731 219.166 58.9731C219.298 58.9731 219.404 59.0465 219.485 59.1932L220.189 60.3484C219.822 60.6712 219.389 60.9206 218.89 61.0966C218.392 61.2653 217.878 61.3497 217.35 61.3497Z" fill="#3E4852"/>
<path d="M229.064 54.297C229.064 53.9009 229.005 53.5341 228.888 53.1967C228.778 52.8519 228.613 52.5549 228.393 52.3055C228.173 52.0487 227.898 51.8507 227.568 51.7113C227.245 51.5646 226.871 51.4913 226.446 51.4913C225.587 51.4913 224.912 51.737 224.421 52.2284C223.93 52.7199 223.618 53.4094 223.486 54.297H229.064ZM223.42 55.7493C223.449 56.3875 223.548 56.9413 223.717 57.4107C223.886 57.8728 224.109 58.2579 224.388 58.566C224.674 58.8741 225.011 59.1051 225.4 59.2592C225.796 59.4059 226.236 59.4792 226.721 59.4792C227.183 59.4792 227.582 59.4279 227.92 59.3252C228.257 59.2152 228.551 59.0978 228.8 58.9731C229.049 58.8411 229.262 58.7237 229.438 58.621C229.614 58.511 229.776 58.456 229.922 58.456C230.113 58.456 230.26 58.5293 230.362 58.676L231.034 59.5452C230.755 59.8753 230.439 60.1541 230.087 60.3814C229.735 60.6088 229.361 60.7959 228.965 60.9426C228.569 61.082 228.162 61.181 227.744 61.2397C227.326 61.3057 226.919 61.3387 226.523 61.3387C225.745 61.3387 225.023 61.2103 224.355 60.9536C223.695 60.6895 223.119 60.3044 222.628 59.7983C222.143 59.2922 221.762 58.665 221.483 57.9168C221.212 57.1687 221.076 56.3068 221.076 55.3312C221.076 54.5537 221.197 53.8275 221.439 53.1527C221.689 52.4778 222.041 51.891 222.496 51.3922C222.958 50.8935 223.515 50.501 224.168 50.215C224.828 49.9215 225.573 49.7748 226.402 49.7748C227.091 49.7748 227.729 49.8885 228.316 50.1159C228.903 50.336 229.409 50.6624 229.834 51.0952C230.26 51.5279 230.59 52.0597 230.825 52.6906C231.067 53.314 231.188 54.0256 231.188 54.8251C231.188 55.1918 231.147 55.4376 231.067 55.5623C230.986 55.687 230.839 55.7493 230.627 55.7493H223.42Z" fill="#3E4852"/>
<path d="M235.627 52.0304C235.979 51.3189 236.405 50.7614 236.904 50.358C237.402 49.9472 238 49.7418 238.697 49.7418C238.939 49.7418 239.166 49.7712 239.379 49.8299C239.592 49.8812 239.783 49.9619 239.951 50.0719L239.786 51.8544C239.757 51.9791 239.709 52.0671 239.643 52.1184C239.585 52.1624 239.504 52.1844 239.401 52.1844C239.291 52.1844 239.133 52.1661 238.928 52.1294C238.723 52.0854 238.506 52.0634 238.279 52.0634C237.949 52.0634 237.655 52.1111 237.399 52.2064C237.149 52.3018 236.922 52.4412 236.717 52.6245C236.518 52.8079 236.342 53.0316 236.188 53.2957C236.034 53.5598 235.891 53.8605 235.759 54.1979V61.1736H233.394V49.9509H234.769C235.018 49.9509 235.191 49.9986 235.286 50.0939C235.382 50.1819 235.448 50.3397 235.484 50.567L235.627 52.0304Z" fill="#3E4852"/>
<path d="M243.981 49.9509V61.1736H241.616V49.9509H243.981ZM244.378 46.5621C244.378 46.7748 244.333 46.9765 244.245 47.1672C244.165 47.3579 244.051 47.5266 243.904 47.6733C243.758 47.8127 243.585 47.9264 243.387 48.0144C243.197 48.0951 242.991 48.1354 242.771 48.1354C242.558 48.1354 242.357 48.0951 242.166 48.0144C241.983 47.9264 241.821 47.8127 241.682 47.6733C241.542 47.5266 241.429 47.3579 241.341 47.1672C241.26 46.9765 241.22 46.7748 241.22 46.5621C241.22 46.342 241.26 46.1366 241.341 45.9459C241.429 45.7552 241.542 45.5902 241.682 45.4508C241.821 45.3041 241.983 45.1904 242.166 45.1097C242.357 45.0217 242.558 44.9777 242.771 44.9777C242.991 44.9777 243.197 45.0217 243.387 45.1097C243.585 45.1904 243.758 45.3041 243.904 45.4508C244.051 45.5902 244.165 45.7552 244.245 45.9459C244.333 46.1366 244.378 46.342 244.378 46.5621Z" fill="#3E4852"/>
<path d="M252.95 56.2664C252.107 56.2958 251.395 56.3655 250.816 56.4755C250.236 56.5782 249.767 56.7139 249.407 56.8826C249.048 57.044 248.787 57.2383 248.626 57.4657C248.472 57.6931 248.395 57.9425 248.395 58.2139C248.395 58.478 248.435 58.7054 248.516 58.8961C248.604 59.0795 248.721 59.2335 248.868 59.3582C249.022 59.4756 249.198 59.5636 249.396 59.6223C249.602 59.6736 249.825 59.6993 250.067 59.6993C250.684 59.6993 251.212 59.5856 251.652 59.3582C252.099 59.1235 252.532 58.7861 252.95 58.3459V56.2664ZM246.679 51.5133C247.948 50.3323 249.459 49.7418 251.212 49.7418C251.857 49.7418 252.429 49.8482 252.928 50.0609C253.434 50.2663 253.856 50.5597 254.193 50.9411C254.538 51.3226 254.799 51.7773 254.975 52.3055C255.158 52.8263 255.25 53.4057 255.25 54.0439V61.1736H254.193C253.966 61.1736 253.794 61.1406 253.676 61.0746C253.559 61.0013 253.46 60.8582 253.379 60.6455L253.148 59.7323C252.862 59.989 252.58 60.2201 252.301 60.4255C252.022 60.6235 251.733 60.7922 251.432 60.9316C251.138 61.0709 250.819 61.1736 250.475 61.2397C250.137 61.313 249.763 61.3497 249.352 61.3497C248.898 61.3497 248.472 61.2873 248.076 61.1626C247.687 61.0379 247.35 60.8509 247.064 60.6015C246.778 60.3448 246.55 60.0294 246.382 59.6553C246.22 59.2812 246.139 58.8411 246.139 58.3349C246.139 57.9022 246.253 57.4804 246.481 57.0696C246.715 56.6589 247.097 56.2921 247.625 55.9694C248.16 55.6393 248.861 55.3679 249.726 55.1552C250.599 54.9424 251.674 54.8214 252.95 54.7921V54.0439C252.95 53.237 252.778 52.6355 252.433 52.2395C252.088 51.8434 251.582 51.6453 250.915 51.6453C250.46 51.6453 250.078 51.704 249.77 51.8213C249.462 51.9314 249.195 52.0524 248.967 52.1844C248.74 52.3165 248.538 52.4412 248.362 52.5585C248.186 52.6686 247.999 52.7236 247.801 52.7236C247.64 52.7236 247.5 52.6832 247.383 52.6025C247.273 52.5145 247.181 52.4082 247.108 52.2835L246.679 51.5133Z" fill="#3E4852"/>
<path d="M260.232 51.4363C260.474 51.1869 260.724 50.9631 260.981 50.7651C261.245 50.5597 261.523 50.3837 261.817 50.237C262.11 50.0903 262.422 49.9766 262.752 49.8959C263.082 49.8152 263.442 49.7748 263.83 49.7748C264.446 49.7748 264.986 49.8775 265.448 50.0829C265.917 50.2883 266.31 50.578 266.625 50.9521C266.948 51.3262 267.19 51.7773 267.351 52.3055C267.513 52.8263 267.593 53.4021 267.593 54.0329V61.1736H265.239V54.0329C265.239 53.2774 265.063 52.6906 264.71 52.2725C264.366 51.8544 263.838 51.6453 263.126 51.6453C262.598 51.6453 262.107 51.7663 261.652 52.0084C261.204 52.2505 260.783 52.5805 260.386 52.9986V61.1736H258.021V49.9509H259.451C259.774 49.9509 259.979 50.1013 260.067 50.402L260.232 51.4363Z" fill="#3E4852"/>
<path d="M287.279 57.6418C287.418 57.6418 287.539 57.6968 287.642 57.8068L288.665 58.9181C288.019 59.6956 287.227 60.2971 286.288 60.7225C285.349 61.1406 284.227 61.3497 282.922 61.3497C281.763 61.3497 280.714 61.1516 279.775 60.7555C278.843 60.3521 278.047 59.7946 277.387 59.0831C276.727 58.3643 276.217 57.5097 275.858 56.5195C275.506 55.5293 275.33 54.44 275.33 53.2517C275.33 52.0634 275.517 50.9741 275.891 49.9839C276.272 48.9863 276.804 48.1318 277.486 47.4203C278.176 46.7014 278.997 46.144 279.951 45.7479C280.912 45.3518 281.968 45.1537 283.12 45.1537C284.264 45.1537 285.272 45.3408 286.145 45.7148C287.026 46.0816 287.788 46.5731 288.434 47.1892L287.587 48.3885C287.528 48.4692 287.458 48.5389 287.378 48.5976C287.297 48.6562 287.187 48.6856 287.048 48.6856C286.901 48.6856 286.732 48.6196 286.541 48.4875C286.358 48.3482 286.12 48.1978 285.826 48.0364C285.54 47.8677 285.177 47.7173 284.737 47.5853C284.304 47.4459 283.761 47.3763 283.109 47.3763C282.353 47.3763 281.66 47.5083 281.029 47.7724C280.398 48.0364 279.855 48.4215 279.401 48.9276C278.946 49.4338 278.59 50.0499 278.333 50.7761C278.084 51.5023 277.959 52.3275 277.959 53.2517C277.959 54.1833 278.091 55.0158 278.355 55.7493C278.619 56.4755 278.983 57.0916 279.445 57.5978C279.907 58.0966 280.45 58.478 281.073 58.742C281.697 59.0061 282.368 59.1381 283.087 59.1381C283.527 59.1381 283.919 59.1161 284.264 59.0721C284.616 59.0208 284.939 58.9438 285.232 58.8411C285.525 58.731 285.801 58.5953 286.057 58.434C286.321 58.2726 286.582 58.0745 286.838 57.8398C286.985 57.7078 287.132 57.6418 287.279 57.6418Z" fill="#3E4852"/>
<path d="M292.814 51.2822C293.276 50.8274 293.783 50.4643 294.333 50.1929C294.883 49.9142 295.525 49.7748 296.258 49.7748C296.874 49.7748 297.413 49.8775 297.876 50.0829C298.345 50.2883 298.737 50.578 299.053 50.9521C299.376 51.3262 299.618 51.7773 299.779 52.3055C299.94 52.8263 300.021 53.4021 300.021 54.0329V61.1736H297.666V54.0329C297.666 53.2774 297.49 52.6906 297.138 52.2725C296.794 51.8544 296.265 51.6453 295.554 51.6453C295.026 51.6453 294.534 51.7663 294.08 52.0084C293.632 52.2505 293.21 52.5805 292.814 52.9986V61.1736H290.449V44.8896H292.814V51.2822Z" fill="#3E4852"/>
<path d="M312.246 49.9509V61.1736H310.816C310.5 61.1736 310.299 61.0233 310.211 60.7225L310.035 59.6773C309.8 59.9267 309.55 60.1541 309.286 60.3594C309.03 60.5648 308.755 60.7409 308.461 60.8876C308.168 61.0343 307.852 61.148 307.515 61.2287C307.185 61.3093 306.829 61.3497 306.448 61.3497C305.832 61.3497 305.289 61.247 304.819 61.0416C304.35 60.8362 303.954 60.5465 303.631 60.1724C303.316 59.7983 303.077 59.3509 302.916 58.8301C302.754 58.3019 302.674 57.7225 302.674 57.0916V49.9509H305.039V57.0916C305.039 57.8472 305.212 58.434 305.556 58.8521C305.909 59.2702 306.44 59.4792 307.152 59.4792C307.673 59.4792 308.157 59.3619 308.604 59.1271C309.059 58.8851 309.484 58.555 309.881 58.1369V49.9509H312.246Z" fill="#3E4852"/>
<path d="M317.352 52.0304C317.704 51.3189 318.13 50.7614 318.629 50.358C319.127 49.9472 319.725 49.7418 320.422 49.7418C320.664 49.7418 320.892 49.7712 321.104 49.8299C321.317 49.8812 321.508 49.9619 321.676 50.0719L321.511 51.8544C321.482 51.9791 321.434 52.0671 321.368 52.1184C321.31 52.1624 321.229 52.1844 321.126 52.1844C321.016 52.1844 320.859 52.1661 320.653 52.1294C320.448 52.0854 320.231 52.0634 320.004 52.0634C319.674 52.0634 319.381 52.1111 319.124 52.2064C318.874 52.3018 318.647 52.4412 318.442 52.6245C318.244 52.8079 318.068 53.0316 317.914 53.2957C317.76 53.5598 317.616 53.8605 317.484 54.1979V61.1736H315.119V49.9509H316.494C316.744 49.9509 316.916 49.9986 317.011 50.0939C317.107 50.1819 317.173 50.3397 317.209 50.567L317.352 52.0304Z" fill="#3E4852"/>
<path d="M330.788 52.1514C330.715 52.2468 330.645 52.3201 330.579 52.3715C330.513 52.4228 330.418 52.4485 330.293 52.4485C330.168 52.4485 330.036 52.4045 329.897 52.3165C329.765 52.2284 329.603 52.1331 329.413 52.0304C329.229 51.9204 329.006 51.8213 328.742 51.7333C328.477 51.6453 328.147 51.6013 327.751 51.6013C327.238 51.6013 326.787 51.693 326.398 51.8764C326.017 52.0597 325.694 52.3238 325.43 52.6686C325.173 53.006 324.979 53.4204 324.847 53.9119C324.722 54.396 324.66 54.9424 324.66 55.5513C324.66 56.1821 324.729 56.7432 324.869 57.2347C325.008 57.7261 325.206 58.1406 325.463 58.478C325.727 58.8154 326.042 59.0721 326.409 59.2482C326.783 59.4242 327.201 59.5122 327.663 59.5122C328.118 59.5122 328.488 59.4572 328.775 59.3472C329.061 59.2372 329.299 59.1161 329.49 58.9841C329.68 58.8521 329.842 58.731 329.974 58.621C330.113 58.511 330.26 58.456 330.414 58.456C330.605 58.456 330.751 58.5293 330.854 58.676L331.525 59.5452C331.254 59.8753 330.953 60.1541 330.623 60.3814C330.293 60.6088 329.945 60.7959 329.578 60.9426C329.211 61.082 328.83 61.181 328.433 61.2397C328.037 61.3057 327.638 61.3387 327.234 61.3387C326.537 61.3387 325.885 61.2103 325.276 60.9536C324.674 60.6895 324.146 60.3118 323.691 59.8203C323.244 59.3215 322.888 58.7164 322.624 58.0049C322.367 57.286 322.239 56.4682 322.239 55.5513C322.239 54.7224 322.356 53.9559 322.591 53.2517C322.826 52.5402 323.167 51.9277 323.614 51.4142C324.069 50.9008 324.63 50.501 325.298 50.215C325.965 49.9215 326.735 49.7748 327.608 49.7748C328.422 49.7748 329.138 49.9069 329.754 50.1709C330.377 50.435 330.931 50.8091 331.415 51.2932L330.788 52.1514Z" fill="#3E4852"/>
<path d="M335.794 51.2822C336.256 50.8274 336.762 50.4643 337.312 50.1929C337.862 49.9142 338.504 49.7748 339.237 49.7748C339.854 49.7748 340.393 49.8775 340.855 50.0829C341.324 50.2883 341.717 50.578 342.032 50.9521C342.355 51.3262 342.597 51.7773 342.758 52.3055C342.92 52.8263 343 53.4021 343 54.0329V61.1736H340.646V54.0329C340.646 53.2774 340.47 52.6906 340.118 52.2725C339.773 51.8544 339.245 51.6453 338.533 51.6453C338.005 51.6453 337.514 51.7663 337.059 52.0084C336.611 52.2505 336.19 52.5805 335.794 52.9986V61.1736H333.428V44.8896H335.794V51.2822Z" fill="#3E4852"/>
<path d="M0 23.2009H83.712V26.6889H0V23.2009Z" fill="#3E4852"/>
<path d="M0 27.5609H83.712V31.0489H0V27.5609Z" fill="#3E4852"/>
<path d="M0 31.9209H83.712V35.4089H0V31.9209Z" fill="#3E4852"/>
<path d="M0 36.2809H83.712V39.7689H0V36.2809Z" fill="#3E4852"/>
<path d="M0 40.6409H83.712V44.1289H0V40.6409Z" fill="#3E4852"/>
<path d="M0 45.0009H83.712V48.4889H0V45.0009Z" fill="#3E4852"/>
<path d="M0 49.3609H83.712V52.8489H0V49.3609Z" fill="#3E4852"/>
<path d="M0 53.7209H83.712V57.2089H0V53.7209Z" fill="#3E4852"/>
<path d="M0 58.0809H83.712V61.5689H0V58.0809Z" fill="#3E4852"/>
<path d="M76.0384 0.354492H77.9568V6.10969H83.712V8.02809H77.9568V18.8409H83.712V22.3289H0V18.8409H76.0384V8.02809H70.1088V6.10969H76.0384V0.354492Z" fill="#3E4852"/>
</svg>
